Chivo-Bold.ufo
<glyph name="quotedbl" format="1">
  <advance width="461"/>
  <unicode hex="0022"/>
  <outline>
    <contour>
      <point x="166" y="401" type="line"/>
      <point x="178" y="447"/>
      <point x="189" y="492"/>
      <point x="200" y="539" type="curve"/>
      <point x="200" y="686" type="line"/>
      <point x="82" y="686" type="line"/>
      <point x="82" y="539" type="line"/>
      <point x="94" y="492"/>
      <point x="104" y="447"/>
      <point x="116" y="401" type="curve"/>
    </contour>
    <contour>
      <point x="344" y="401" type="line"/>
      <point x="355" y="447"/>
      <point x="367" y="492"/>
      <point x="379" y="539" type="curve"/>
      <point x="379" y="686" type="line"/>
      <point x="260" y="686" type="line"/>
      <point x="260" y="539" type="line"/>
      <point x="272" y="492"/>
      <point x="283" y="447"/>
      <point x="294" y="401" type="curve"/>
    </contour>
  </outline>
</glyph>
<glyph name="ampersand" format="1">
  <advance width="670"/>
  <unicode hex="0026"/>
  <outline>
    <contour>
      <point x="347" y="691" type="line"/>
      <point x="329" y="694"/>
      <point x="310" y="696"/>
      <point x="291" y="696" type="curve" smooth="yes"/>
      <point x="172" y="696"/>
      <point x="55" y="631"/>
      <point x="55" y="507" type="curve" smooth="yes"/>
      <point x="55" y="433"/>
      <point x="98" y="381"/>
      <point x="163" y="357" type="curve"/>
      <point x="88" y="332"/>
      <point x="37" y="284"/>
      <point x="37" y="195" type="curve" smooth="yes"/>
      <point x="37" y="51"/>
      <point x="159" y="0"/>
      <point x="294" y="0" type="curve" smooth="yes"/>
      <point x="566" y="0" type="line"/>
      <point x="566" y="292" type="line"/>
      <point x="660" y="292" type="line"/>
      <point x="660" y="408" type="line"/>
      <point x="566" y="408" type="line"/>
      <point x="566" y="539" type="line"/>
      <point x="463" y="539" type="line"/>
      <point x="450" y="495"/>
      <point x="436" y="452"/>
      <point x="422" y="408" type="curve"/>
      <point x="300" y="408" type="line" smooth="yes"/>
      <point x="234" y="408"/>
      <point x="201" y="460"/>
      <point x="201" y="493" type="curve" smooth="yes"/>
      <point x="201" y="550"/>
      <point x="250" y="577"/>
      <point x="304" y="577" type="curve" smooth="yes"/>
      <point x="320" y="577"/>
      <point x="334" y="574"/>
      <point x="347" y="570" type="curve"/>
    </contour>
    <contour>
      <point x="418" y="292" type="line"/>
      <point x="418" y="113" type="line"/>
      <point x="325" y="113" type="line" smooth="yes"/>
      <point x="256" y="113"/>
      <point x="185" y="129"/>
      <point x="185" y="204" type="curve" smooth="yes"/>
      <point x="185" y="251"/>
      <point x="222" y="292"/>
      <point x="304" y="292" type="curve" smooth="yes"/>
    </contour>
  </outline>
</glyph>
<glyph name="quotesingle" format="1">
  <advance width="272"/>
  <unicode hex="0027"/>
  <outline>
    <contour>
      <point x="160" y="401" type="line"/>
      <point x="172" y="447"/>
      <point x="183" y="492"/>
      <point x="195" y="539" type="curve"/>
      <point x="195" y="686" type="line"/>
      <point x="76" y="686" type="line"/>
      <point x="76" y="539" type="line"/>
      <point x="88" y="492"/>
      <point x="99" y="447"/>
      <point x="110" y="401" type="curve"/>
    </contour>
  </outline>
</glyph>
<glyph name="zero" format="1">
  <advance width="612"/>
  <unicode hex="0030"/>
  <outline>
    <contour>
      <point x="560" y="455" type="line" smooth="yes"/>
      <point x="560" y="591"/>
      <point x="454" y="696"/>
      <point x="320" y="696" type="curve" smooth="yes"/>
      <point x="291" y="696" type="line" smooth="yes"/>
      <point x="157" y="696"/>
      <point x="52" y="591"/>
      <point x="52" y="455" type="curve" smooth="yes"/>
      <point x="52" y="230" type="line" smooth="yes"/>
      <point x="52" y="94"/>
      <point x="157" y="-10"/>
      <point x="291" y="-10" type="curve" smooth="yes"/>
      <point x="320" y="-10" type="line" smooth="yes"/>
      <point x="454" y="-10"/>
      <point x="560" y="94"/>
      <point x="560" y="230" type="curve" smooth="yes"/>
    </contour>
    <contour>
      <point x="412" y="214" type="line" smooth="yes"/>
      <point x="412" y="154"/>
      <point x="367" y="107"/>
      <point x="306" y="107" type="curve" smooth="yes"/>
      <point x="245" y="107"/>
      <point x="200" y="154"/>
      <point x="200" y="214" type="curve" smooth="yes"/>
      <point x="200" y="472" type="line" smooth="yes"/>
      <point x="200" y="532"/>
      <point x="245" y="579"/>
      <point x="306" y="579" type="curve" smooth="yes"/>
      <point x="367" y="579"/>
      <point x="412" y="532"/>
      <point x="412" y="472" type="curve" smooth="yes"/>
    </contour>
  </outline>
</glyph>
<glyph name="two" format="1">
  <advance width="612"/>
  <unicode hex="0032"/>
  <outline>
    <contour>
      <point x="58" y="0" type="line"/>
      <point x="561" y="0" type="line"/>
      <point x="561" y="128" type="line"/>
      <point x="267" y="128" type="line"/>
      <point x="267" y="134"/>
      <point x="298" y="161"/>
      <point x="307" y="168" type="curve" smooth="yes"/>
      <point x="348" y="199"/>
      <point x="410" y="247"/>
      <point x="459" y="288" type="curve" smooth="yes"/>
      <point x="534" y="351"/>
      <point x="559" y="407"/>
      <point x="559" y="484" type="curve" smooth="yes"/>
      <point x="559" y="590"/>
      <point x="483" y="696"/>
      <point x="332" y="696" type="curve" smooth="yes"/>
      <point x="317" y="696" type="line" smooth="yes"/>
      <point x="114" y="696"/>
      <point x="59" y="557"/>
      <point x="59" y="464" type="curve" smooth="yes"/>
      <point x="59" y="458"/>
      <point x="59" y="453"/>
      <point x="60" y="445" type="curve"/>
      <point x="197" y="445" type="line"/>
      <point x="196" y="454"/>
      <point x="196" y="462"/>
      <point x="196" y="472" type="curve" smooth="yes"/>
      <point x="196" y="502"/>
      <point x="226" y="573"/>
      <point x="310" y="573" type="curve" smooth="yes"/>
      <point x="379" y="573"/>
      <point x="406" y="525"/>
      <point x="406" y="481" type="curve" smooth="yes"/>
      <point x="406" y="442"/>
      <point x="393" y="400"/>
      <point x="339" y="358" type="curve" smooth="yes"/>
      <point x="144" y="205" type="line" smooth="yes"/>
      <point x="99" y="170"/>
      <point x="58" y="128"/>
      <point x="58" y="30" type="curve" smooth="yes"/>
    </contour>
  </outline>
</glyph>
<glyph name="three" format="1">
  <advance width="612"/>
  <unicode hex="0033"/>
  <outline>
    <contour>
      <point x="37" y="191" type="line" smooth="yes"/>
      <point x="37" y="76"/>
      <point x="126" y="-10"/>
      <point x="286" y="-10" type="curve" smooth="yes"/>
      <point x="313" y="-10" type="line" smooth="yes"/>
      <point x="466" y="-10"/>
      <point x="563" y="73"/>
      <point x="563" y="186" type="curve" smooth="yes"/>
      <point x="563" y="274"/>
      <point x="516" y="330"/>
      <point x="443" y="354" type="curve"/>
      <point x="443" y="359" type="line"/>
      <point x="503" y="386"/>
      <point x="545" y="435"/>
      <point x="545" y="510" type="curve" smooth="yes"/>
      <point x="545" y="617"/>
      <point x="448" y="696"/>
      <point x="313" y="696" type="curve" smooth="yes"/>
      <point x="294" y="696" type="line" smooth="yes"/>
      <point x="154" y="696"/>
      <point x="56" y="617"/>
      <point x="56" y="509" type="curve" smooth="yes"/>
      <point x="56" y="488" type="line"/>
      <point x="189" y="488" type="line"/>
      <point x="189" y="546"/>
      <point x="238" y="577"/>
      <point x="292" y="577" type="curve" smooth="yes"/>
      <point x="348" y="577"/>
      <point x="398" y="551"/>
      <point x="398" y="492" type="curve" smooth="yes"/>
      <point x="398" y="432"/>
      <point x="351" y="403"/>
      <point x="295" y="403" type="curve" smooth="yes"/>
      <point x="213" y="403" type="line"/>
      <point x="213" y="296" type="line"/>
      <point x="285" y="296" type="line" smooth="yes"/>
      <point x="349" y="296"/>
      <point x="414" y="286"/>
      <point x="414" y="205" type="curve" smooth="yes"/>
      <point x="414" y="140"/>
      <point x="370" y="109"/>
      <point x="292" y="109" type="curve" smooth="yes"/>
      <point x="213" y="109"/>
      <point x="174" y="140"/>
      <point x="174" y="205" type="curve"/>
      <point x="37" y="205" type="line"/>
    </contour>
  </outline>
</glyph>
<glyph name="four" format="1">
  <advance width="612"/>
  <unicode hex="0034"/>
  <outline>
    <contour>
      <point x="335" y="278" type="line"/>
      <point x="145" y="278" type="line"/>
      <point x="204" y="347"/>
      <point x="326" y="551"/>
      <point x="359" y="696" type="curve"/>
      <point x="218" y="696" type="line"/>
      <point x="182" y="570"/>
      <point x="102" y="388"/>
      <point x="33" y="279" type="curve"/>
      <point x="33" y="160" type="line"/>
      <point x="335" y="160" type="line"/>
      <point x="335" y="0" type="line"/>
      <point x="478" y="0" type="line"/>
      <point x="478" y="160" type="line"/>
      <point x="570" y="160" type="line"/>
      <point x="570" y="278" type="line"/>
      <point x="478" y="278" type="line"/>
      <point x="478" y="612" type="line"/>
      <point x="414" y="612" type="line"/>
      <point x="400" y="559"/>
      <point x="370" y="480"/>
      <point x="335" y="428" type="curve"/>
    </contour>
  </outline>
</glyph>
<glyph name="nine" format="1">
  <advance width="612"/>
  <unicode hex="0039"/>
  <outline>
    <contour>
      <point x="244" y="109"/>
      <point x="203" y="158"/>
      <point x="203" y="216" type="curve"/>
      <point x="65" y="216" type="line"/>
      <point x="65" y="71"/>
      <point x="170" y="-10"/>
      <point x="301" y="-10" type="curve" smooth="yes"/>
      <point x="315" y="-10" type="line" smooth="yes"/>
      <point x="451" y="-10"/>
      <point x="560" y="94"/>
      <point x="560" y="230" type="curve" smooth="yes"/>
      <point x="560" y="454" type="line" smooth="yes"/>
      <point x="560" y="598"/>
      <point x="449" y="696"/>
      <point x="312" y="696" type="curve" smooth="yes"/>
      <point x="298" y="696" type="line" smooth="yes"/>
      <point x="160" y="696"/>
      <point x="51" y="605"/>
      <point x="51" y="460" type="curve" smooth="yes"/>
      <point x="51" y="331"/>
      <point x="150" y="251"/>
      <point x="273" y="251" type="curve" smooth="yes"/>
      <point x="323" y="251"/>
      <point x="376" y="271"/>
      <point x="413" y="310" type="curve"/>
      <point x="413" y="213" type="line" smooth="yes"/>
      <point x="413" y="154"/>
      <point x="357" y="109"/>
      <point x="305" y="109" type="curve" smooth="yes"/>
    </contour>
    <contour>
      <point x="196" y="478" type="line" smooth="yes"/>
      <point x="196" y="538"/>
      <point x="245" y="581"/>
      <point x="304" y="581" type="curve" smooth="yes"/>
      <point x="366" y="581"/>
      <point x="413" y="538"/>
      <point x="413" y="478" type="curve" smooth="yes"/>
      <point x="413" y="457" type="line" smooth="yes"/>
      <point x="413" y="397"/>
      <point x="363" y="354"/>
      <point x="304" y="354" type="curve" smooth="yes"/>
      <point x="242" y="354"/>
      <point x="196" y="397"/>
      <point x="196" y="457" type="curve" smooth="yes"/>
    </contour>
  </outline>
</glyph>
<glyph name="colon" format="1">
  <advance width="277"/>
  <unicode hex="003A"/>
  <outline>
    <contour>
      <point x="65" y="0" type="line"/>
      <point x="211" y="0" type="line"/>
      <point x="211" y="147" type="line"/>
      <point x="65" y="147" type="line"/>
    </contour>
    <contour>
      <point x="65" y="363" type="line"/>
      <point x="211" y="363" type="line"/>
      <point x="211" y="511" type="line"/>
      <point x="65" y="511" type="line"/>
    </contour>
  </outline>
</glyph>
<glyph name="semicolon" format="1">
  <advance width="277"/>
  <unicode hex="003B"/>
  <outline>
    <contour>
      <point x="65" y="363" type="line"/>
      <point x="211" y="363" type="line"/>
      <point x="211" y="511" type="line"/>
      <point x="65" y="511" type="line"/>
    </contour>
    <contour>
      <point x="169" y="-144" type="line"/>
      <point x="211" y="24" type="line"/>
      <point x="211" y="147" type="line"/>
      <point x="65" y="147" type="line"/>
      <point x="65" y="0" type="line"/>
      <point x="128" y="0" type="line"/>
      <point x="117" y="-48"/>
      <point x="106" y="-96"/>
      <point x="96" y="-144" type="curve"/>
    </contour>
  </outline>
</glyph>
<glyph name="question" format="1">
  <advance width="572"/>
  <unicode hex="003F"/>
  <outline>
    <contour>
      <point x="216" y="0" type="line"/>
      <point x="363" y="0" type="line"/>
      <point x="363" y="147" type="line"/>
      <point x="216" y="147" type="line"/>
    </contour>
    <contour>
      <point x="358" y="233" type="line" smooth="yes"/>
      <point x="358" y="307"/>
      <point x="521" y="325"/>
      <point x="521" y="491" type="curve" smooth="yes"/>
      <point x="521" y="599"/>
      <point x="442" y="696"/>
      <point x="296" y="696" type="curve" smooth="yes"/>
      <point x="274" y="696" type="line" smooth="yes"/>
      <point x="130" y="696"/>
      <point x="38" y="592"/>
      <point x="38" y="489" type="curve" smooth="yes"/>
      <point x="38" y="472"/>
      <point x="40" y="461"/>
      <point x="41" y="452" type="curve"/>
      <point x="182" y="452" type="line"/>
      <point x="182" y="452"/>
      <point x="181" y="473"/>
      <point x="181" y="484" type="curve" smooth="yes"/>
      <point x="181" y="521"/>
      <point x="196" y="582"/>
      <point x="275" y="582" type="curve" smooth="yes"/>
      <point x="338" y="582"/>
      <point x="365" y="543"/>
      <point x="365" y="493" type="curve" smooth="yes"/>
      <point x="365" y="387"/>
      <point x="222" y="358"/>
      <point x="222" y="259" type="curve" smooth="yes"/>
      <point x="222" y="201" type="line"/>
      <point x="358" y="201" type="line"/>
    </contour>
  </outline>
</glyph>
<glyph name="D" format="1">
  <advance width="686"/>
  <unicode hex="0044"/>
  <outline>
    <contour>
      <point x="72" y="686" type="line"/>
      <point x="72" y="0" type="line"/>
      <point x="332" y="0" type="line" smooth="yes"/>
      <point x="499" y="0"/>
      <point x="638" y="109"/>
      <point x="638" y="304" type="curve" smooth="yes"/>
      <point x="638" y="382" type="line" smooth="yes"/>
      <point x="638" y="577"/>
      <point x="499" y="686"/>
      <point x="332" y="686" type="curve" smooth="yes"/>
    </contour>
    <contour>
      <point x="332" y="563" type="line" smooth="yes"/>
      <point x="414" y="563"/>
      <point x="476" y="509"/>
      <point x="476" y="404" type="curve" smooth="yes"/>
      <point x="476" y="282" type="line" smooth="yes"/>
      <point x="476" y="177"/>
      <point x="414" y="123"/>
      <point x="332" y="123" type="curve" smooth="yes"/>
      <point x="227" y="123" type="line"/>
      <point x="227" y="563" type="line"/>
    </contour>
    <contour>
      <point x="343" y="343" type="move" name="center"/>
    </contour>
    <contour>
      <point x="343" y="686" type="move" name="top"/>
    </contour>
  </outline>
</glyph>
<glyph name="E" format="1">
  <advance width="598"/>
  <unicode hex="0045"/>
  <outline>
    <contour>
      <point x="558" y="0" type="line"/>
      <point x="541" y="123" type="line"/>
      <point x="224" y="123" type="line"/>
      <point x="224" y="290" type="line"/>
      <point x="517" y="290" type="line"/>
      <point x="517" y="413" type="line"/>
      <point x="224" y="413" type="line"/>
      <point x="224" y="563" type="line"/>
      <point x="538" y="563" type="line"/>
      <point x="555" y="686" type="line"/>
      <point x="72" y="686" type="line"/>
      <point x="72" y="0" type="line"/>
    </contour>
    <contour>
      <point x="528" y="10" type="move" name="ogonek"/>
    </contour>
    <contour>
      <point x="299" y="0" type="move" name="bottom"/>
    </contour>
    <contour>
      <point x="299" y="686" type="move" name="top"/>
    </contour>
  </outline>
</glyph>
<glyph name="J" format="1">
  <advance width="527"/>
  <unicode hex="004A"/>
  <outline>
    <contour>
      <point x="10" y="183" type="line" smooth="yes"/>
      <point x="10" y="57"/>
      <point x="94" y="-10"/>
      <point x="219" y="-10" type="curve" smooth="yes"/>
      <point x="239" y="-10" type="line" smooth="yes"/>
      <point x="363" y="-10"/>
      <point x="455" y="56"/>
      <point x="455" y="183" type="curve" smooth="yes"/>
      <point x="455" y="686" type="line"/>
      <point x="304" y="686" type="line"/>
      <point x="304" y="187" type="line" smooth="yes"/>
      <point x="304" y="142"/>
      <point x="272" y="113"/>
      <point x="228" y="113" type="curve" smooth="yes"/>
      <point x="190" y="113"/>
      <point x="155" y="147"/>
      <point x="155" y="187" type="curve" smooth="yes"/>
      <point x="155" y="228" type="line"/>
      <point x="10" y="228" type="line"/>
    </contour>
    <contour>
      <point x="304" y="686" type="move" name="top"/>
    </contour>
  </outline>
</glyph>
<glyph name="L" format="1">
  <advance width="533"/>
  <unicode hex="004C"/>
  <outline>
    <contour>
      <point x="526" y="0" type="line"/>
      <point x="509" y="128" type="line"/>
      <point x="227" y="128" type="line"/>
      <point x="227" y="686" type="line"/>
      <point x="72" y="686" type="line"/>
      <point x="72" y="0" type="line"/>
    </contour>
    <contour>
      <point x="177" y="686" type="move" name="top"/>
    </contour>
    <contour>
      <point x="267" y="0" type="move" name="bottom"/>
    </contour>
    <contour>
      <point x="433" y="686" type="move" name="topright"/>
    </contour>
  </outline>
</glyph>
<glyph name="M" format="1">
  <advance width="967"/>
  <unicode hex="004D"/>
  <outline>
    <contour>
      <point x="894" y="0" type="line"/>
      <point x="894" y="686" type="line"/>
      <point x="645" y="686" type="line"/>
      <point x="485" y="233" type="line"/>
      <point x="481" y="233" type="line"/>
      <point x="321" y="686" type="line"/>
      <point x="72" y="686" type="line"/>
      <point x="72" y="0" type="line"/>
      <point x="212" y="0" type="line"/>
      <point x="212" y="505" type="line"/>
      <point x="217" y="505" type="line"/>
      <point x="395" y="0" type="line"/>
      <point x="557" y="0" type="line"/>
      <point x="735" y="505" type="line"/>
      <point x="740" y="505" type="line"/>
      <point x="740" y="0" type="line"/>
    </contour>
  </outline>
</glyph>
<glyph name="N" format="1">
  <advance width="691"/>
  <unicode hex="004E"/>
  <outline>
    <contour>
      <point x="618" y="0" type="line"/>
      <point x="618" y="686" type="line"/>
      <point x="477" y="686" type="line"/>
      <point x="477" y="283" type="line"/>
      <point x="474" y="280" type="line"/>
      <point x="455" y="309"/>
      <point x="438" y="340"/>
      <point x="419" y="368" type="curve" smooth="yes"/>
      <point x="203" y="686" type="line"/>
      <point x="72" y="686" type="line"/>
      <point x="72" y="0" type="line"/>
      <point x="213" y="0" type="line"/>
      <point x="213" y="402" type="line"/>
      <point x="217" y="405" type="line"/>
      <point x="217" y="405"/>
      <point x="254" y="342"/>
      <point x="272" y="316" type="curve" smooth="yes"/>
      <point x="487" y="0" type="line"/>
    </contour>
    <contour>
      <point x="346" y="686" type="move" name="top"/>
    </contour>
    <contour>
      <point x="346" y="0" type="move" name="bottom"/>
    </contour>
  </outline>
</glyph>
<glyph name="Q" format="1">
  <advance width="708"/>
  <unicode hex="0051"/>
  <outline>
    <contour>
      <point x="660" y="392" type="line" smooth="yes"/>
      <point x="660" y="587"/>
      <point x="521" y="696"/>
      <point x="354" y="696" type="curve" smooth="yes"/>
      <point x="187" y="696"/>
      <point x="48" y="587"/>
      <point x="48" y="392" type="curve" smooth="yes"/>
      <point x="48" y="294" type="line" smooth="yes"/>
      <point x="48" y="124"/>
      <point x="153" y="20"/>
      <point x="290" y="-4" type="curve"/>
      <point x="304" y="-71"/>
      <point x="361" y="-153"/>
      <point x="498" y="-153" type="curve" smooth="yes"/>
      <point x="590" y="-153"/>
      <point x="655" y="-116"/>
      <point x="655" y="-116" type="curve"/>
      <point x="655" y="-28" type="line"/>
      <point x="655" y="-29"/>
      <point x="580" y="-54"/>
      <point x="533" y="-54" type="curve" smooth="yes"/>
      <point x="478" y="-54"/>
      <point x="453" y="-25"/>
      <point x="443" y="1" type="curve"/>
      <point x="568" y="34"/>
      <point x="660" y="135"/>
      <point x="660" y="294" type="curve" smooth="yes"/>
    </contour>
    <contour>
      <point x="498" y="272" type="line" smooth="yes"/>
      <point x="498" y="167"/>
      <point x="436" y="113"/>
      <point x="354" y="113" type="curve" smooth="yes"/>
      <point x="272" y="113"/>
      <point x="210" y="167"/>
      <point x="210" y="272" type="curve" smooth="yes"/>
      <point x="210" y="414" type="line" smooth="yes"/>
      <point x="210" y="519"/>
      <point x="272" y="573"/>
      <point x="354" y="573" type="curve" smooth="yes"/>
      <point x="436" y="573"/>
      <point x="498" y="519"/>
      <point x="498" y="414" type="curve" smooth="yes"/>
    </contour>
  </outline>
</glyph>
<glyph name="R" format="1">
  <advance width="665"/>
  <unicode hex="0052"/>
  <outline>
    <contour>
      <point x="648" y="40" type="line"/>
      <point x="603" y="54"/>
      <point x="597" y="122"/>
      <point x="597" y="166" type="curve" smooth="yes"/>
      <point x="597" y="279"/>
      <point x="536" y="333"/>
      <point x="487" y="349" type="curve"/>
      <point x="487" y="354" type="line"/>
      <point x="557" y="367"/>
      <point x="610" y="443"/>
      <point x="610" y="516" type="curve" smooth="yes"/>
      <point x="610" y="646"/>
      <point x="492" y="686"/>
      <point x="379" y="686" type="curve" smooth="yes"/>
      <point x="72" y="686" type="line"/>
      <point x="72" y="0" type="line"/>
      <point x="224" y="0" type="line"/>
      <point x="224" y="284" type="line"/>
      <point x="340" y="284" type="line" smooth="yes"/>
      <point x="429" y="284"/>
      <point x="447" y="202"/>
      <point x="447" y="102" type="curve" smooth="yes"/>
      <point x="447" y="17"/>
      <point x="503" y="-7"/>
      <point x="562" y="-7" type="curve" smooth="yes"/>
      <point x="591" y="-7"/>
      <point x="625" y="-3"/>
      <point x="648" y="6" type="curve"/>
    </contour>
    <contour>
      <point x="224" y="405" type="line"/>
      <point x="224" y="563" type="line"/>
      <point x="374" y="563" type="line" smooth="yes"/>
      <point x="421" y="563"/>
      <point x="454" y="530"/>
      <point x="454" y="487" type="curve" smooth="yes"/>
      <point x="454" y="480" type="line" smooth="yes"/>
      <point x="454" y="438"/>
      <point x="418" y="405"/>
      <point x="374" y="405" type="curve" smooth="yes"/>
    </contour>
    <contour>
      <point x="333" y="686" type="move" name="top"/>
    </contour>
    <contour>
      <point x="333" y="0" type="move" name="bottom"/>
    </contour>
  </outline>
</glyph>
<glyph name="W" format="1">
  <advance width="972"/>
  <unicode hex="0057"/>
  <outline>
    <contour>
      <point x="490" y="412" type="line"/>
      <point x="602" y="0" type="line"/>
      <point x="771" y="0" type="line"/>
      <point x="964" y="686" type="line"/>
      <point x="818" y="686" type="line"/>
      <point x="778" y="536"/>
      <point x="737" y="386"/>
      <point x="697" y="237" type="curve"/>
      <point x="692" y="237" type="line"/>
      <point x="652" y="386"/>
      <point x="611" y="536"/>
      <point x="571" y="686" type="curve"/>
      <point x="416" y="686" type="line"/>
      <point x="375" y="536"/>
      <point x="335" y="386"/>
      <point x="294" y="237" type="curve"/>
      <point x="289" y="237" type="line"/>
      <point x="249" y="386"/>
      <point x="208" y="536"/>
      <point x="168" y="686" type="curve"/>
      <point x="7" y="686" type="line"/>
      <point x="199" y="0" type="line"/>
      <point x="370" y="0" type="line"/>
      <point x="484" y="412" type="line"/>
    </contour>
    <contour>
      <point x="486" y="686" type="move" name="top"/>
    </contour>
  </outline>
</glyph>
<glyph name="X" format="1">
  <advance width="658"/>
  <unicode hex="0058"/>
  <outline>
    <contour>
      <point x="167" y="0" type="line"/>
      <point x="186" y="35"/>
      <point x="251" y="137"/>
      <point x="321" y="245" type="curve"/>
      <point x="325" y="245" type="line"/>
      <point x="477" y="0" type="line"/>
      <point x="658" y="0" type="line"/>
      <point x="658" y="0"/>
      <point x="504" y="242"/>
      <point x="426" y="362" type="curve"/>
      <point x="517" y="499"/>
      <point x="637" y="686"/>
      <point x="637" y="686" type="curve" smooth="yes"/>
      <point x="470" y="686" type="line"/>
      <point x="454" y="657"/>
      <point x="400" y="571"/>
      <point x="337" y="476" type="curve"/>
      <point x="333" y="476" type="line"/>
      <point x="203" y="686" type="line"/>
      <point x="22" y="686" type="line"/>
      <point x="232" y="360" type="line"/>
      <point x="155" y="240"/>
      <point x="0" y="0"/>
      <point x="0" y="0" type="curve"/>
    </contour>
  </outline>
</glyph>
<glyph name="Y" format="1">
  <advance width="637"/>
  <unicode hex="0059"/>
  <outline>
    <contour>
      <point x="630" y="686" type="line"/>
      <point x="472" y="686" type="line"/>
      <point x="329" y="414" type="line"/>
      <point x="324" y="414" type="line"/>
      <point x="181" y="686" type="line"/>
      <point x="7" y="686" type="line"/>
      <point x="242" y="263" type="line"/>
      <point x="242" y="0" type="line"/>
      <point x="396" y="0" type="line"/>
      <point x="396" y="263" type="line"/>
    </contour>
    <contour>
      <point x="319" y="686" type="move" name="top"/>
    </contour>
  </outline>
</glyph>
<glyph name="backslash" format="1">
  <advance width="560"/>
  <unicode hex="005C"/>
  <outline>
    <contour>
      <point x="478" y="-171" type="line"/>
      <point x="585" y="-171" type="line"/>
      <point x="95" y="686" type="line"/>
      <point x="-11" y="686" type="line"/>
    </contour>
  </outline>
</glyph>
<glyph name="underscore" format="1">
  <advance width="500"/>
  <unicode hex="005F"/>
  <outline>
    <contour>
      <point x="500" y="-126" type="line"/>
      <point x="500" y="-65" type="line"/>
      <point x="0" y="-65" type="line"/>
      <point x="0" y="-126" type="line"/>
    </contour>
  </outline>
</glyph>
<glyph name="grave" format="1">
  <advance width="333"/>
  <unicode hex="0060"/>
  <outline>
    <contour>
      <point x="273" y="575" type="line"/>
      <point x="180" y="720" type="line"/>
      <point x="52" y="720" type="line"/>
      <point x="51" y="717" type="line"/>
      <point x="171" y="575" type="line"/>
    </contour>
    <contour>
      <point x="192" y="511" type="move" name="_top"/>
    </contour>
  </outline>
</glyph>
<glyph name="b" format="1">
  <advance width="595"/>
  <unicode hex="0062"/>
  <outline>
    <contour>
      <point x="212" y="720" type="line"/>
      <point x="66" y="720" type="line"/>
      <point x="66" y="0" type="line"/>
      <point x="119" y="0" type="line"/>
      <point x="136" y="25"/>
      <point x="153" y="52"/>
      <point x="170" y="78" type="curve"/>
      <point x="208" y="21"/>
      <point x="266" y="-10"/>
      <point x="340" y="-10" type="curve" smooth="yes"/>
      <point x="457" y="-10"/>
      <point x="552" y="73"/>
      <point x="552" y="253" type="curve" smooth="yes"/>
      <point x="552" y="264" type="line" smooth="yes"/>
      <point x="552" y="435"/>
      <point x="464" y="521"/>
      <point x="355" y="521" type="curve" smooth="yes"/>
      <point x="285" y="521"/>
      <point x="237" y="485"/>
      <point x="212" y="452" type="curve"/>
    </contour>
    <contour>
      <point x="404" y="211" type="line" smooth="yes"/>
      <point x="404" y="130"/>
      <point x="362" y="90"/>
      <point x="308" y="90" type="curve" smooth="yes"/>
      <point x="254" y="90"/>
      <point x="212" y="130"/>
      <point x="212" y="211" type="curve" smooth="yes"/>
      <point x="212" y="294" type="line" smooth="yes"/>
      <point x="212" y="375"/>
      <point x="254" y="415"/>
      <point x="308" y="415" type="curve" smooth="yes"/>
      <point x="362" y="415"/>
      <point x="404" y="375"/>
      <point x="404" y="294" type="curve" smooth="yes"/>
    </contour>
  </outline>
</glyph>
<glyph name="d" format="1">
  <advance width="595"/>
  <unicode hex="0064"/>
  <outline>
    <contour>
      <point x="529" y="0" type="line"/>
      <point x="529" y="720" type="line"/>
      <point x="383" y="720" type="line"/>
      <point x="383" y="452" type="line"/>
      <point x="358" y="485"/>
      <point x="310" y="521"/>
      <point x="240" y="521" type="curve" smooth="yes"/>
      <point x="131" y="521"/>
      <point x="43" y="435"/>
      <point x="43" y="264" type="curve" smooth="yes"/>
      <point x="43" y="253" type="line" smooth="yes"/>
      <point x="43" y="73"/>
      <point x="138" y="-10"/>
      <point x="255" y="-10" type="curve" smooth="yes"/>
      <point x="322" y="-10"/>
      <point x="367" y="22"/>
      <point x="399" y="64" type="curve"/>
      <point x="404" y="42"/>
      <point x="409" y="21"/>
      <point x="414" y="0" type="curve"/>
    </contour>
    <contour>
      <point x="191" y="294" type="line" smooth="yes"/>
      <point x="191" y="375"/>
      <point x="233" y="415"/>
      <point x="287" y="415" type="curve" smooth="yes"/>
      <point x="341" y="415"/>
      <point x="383" y="375"/>
      <point x="383" y="294" type="curve" smooth="yes"/>
      <point x="383" y="211" type="line" smooth="yes"/>
      <point x="383" y="130"/>
      <point x="341" y="90"/>
      <point x="287" y="90" type="curve" smooth="yes"/>
      <point x="233" y="90"/>
      <point x="191" y="130"/>
      <point x="191" y="211" type="curve" smooth="yes"/>
    </contour>
    <contour>
      <point x="298" y="256" type="move" name="center"/>
    </contour>
    <contour>
      <point x="665" y="686" type="move" name="topright"/>
    </contour>
  </outline>
</glyph>
<glyph name="e" format="1">
  <advance width="584"/>
  <unicode hex="0065"/>
  <outline>
    <contour>
      <point x="400" y="191" type="line"/>
      <point x="400" y="123"/>
      <point x="361" y="90"/>
      <point x="301" y="90" type="curve" smooth="yes"/>
      <point x="231" y="90"/>
      <point x="191" y="142"/>
      <point x="191" y="207" type="curve" smooth="yes"/>
      <point x="191" y="231" type="line"/>
      <point x="541" y="231" type="line"/>
      <point x="541" y="307" type="line" smooth="yes"/>
      <point x="541" y="444"/>
      <point x="431" y="521"/>
      <point x="309" y="521" type="curve" smooth="yes"/>
      <point x="293" y="521" type="line" smooth="yes"/>
      <point x="153" y="521"/>
      <point x="43" y="429"/>
      <point x="43" y="270" type="curve" smooth="yes"/>
      <point x="43" y="241" type="line" smooth="yes"/>
      <point x="43" y="82"/>
      <point x="151" y="-10"/>
      <point x="293" y="-10" type="curve" smooth="yes"/>
      <point x="309" y="-10" type="line" smooth="yes"/>
      <point x="427" y="-10"/>
      <point x="540" y="50"/>
      <point x="540" y="191" type="curve"/>
    </contour>
    <contour>
      <point x="367" y="421"/>
      <point x="393" y="374"/>
      <point x="393" y="311" type="curve"/>
      <point x="191" y="311" type="line"/>
      <point x="196" y="373"/>
      <point x="234" y="421"/>
      <point x="294" y="421" type="curve" smooth="yes"/>
    </contour>
    <contour>
      <point x="396" y="10" type="move" name="ogonek"/>
    </contour>
    <contour>
      <point x="292" y="0" type="move" name="bottom"/>
    </contour>
    <contour>
      <point x="292" y="511" type="move" name="top"/>
    </contour>
  </outline>
</glyph>
<glyph name="m" format="1">
  <advance width="870"/>
  <unicode hex="006D"/>
  <outline>
    <contour>
      <point x="282" y="521"/>
      <point x="229" y="494"/>
      <point x="192" y="436" type="curve"/>
      <point x="187" y="461"/>
      <point x="182" y="486"/>
      <point x="176" y="511" type="curve"/>
      <point x="66" y="511" type="line"/>
      <point x="66" y="0" type="line"/>
      <point x="212" y="0" type="line"/>
      <point x="212" y="317" type="line" smooth="yes"/>
      <point x="212" y="374"/>
      <point x="248" y="415"/>
      <point x="294" y="415" type="curve" smooth="yes"/>
      <point x="336" y="415"/>
      <point x="363" y="384"/>
      <point x="363" y="328" type="curve" smooth="yes"/>
      <point x="363" y="0" type="line"/>
      <point x="509" y="0" type="line"/>
      <point x="509" y="317" type="line" smooth="yes"/>
      <point x="509" y="374"/>
      <point x="546" y="415"/>
      <point x="592" y="415" type="curve" smooth="yes"/>
      <point x="634" y="415"/>
      <point x="660" y="384"/>
      <point x="660" y="328" type="curve" smooth="yes"/>
      <point x="660" y="0" type="line"/>
      <point x="806" y="0" type="line"/>
      <point x="806" y="357" type="line" smooth="yes"/>
      <point x="806" y="464"/>
      <point x="731" y="521"/>
      <point x="639" y="521" type="curve" smooth="yes"/>
      <point x="579" y="521"/>
      <point x="527" y="497"/>
      <point x="490" y="439" type="curve"/>
      <point x="462" y="493"/>
      <point x="406" y="521"/>
      <point x="342" y="521" type="curve" smooth="yes"/>
    </contour>
  </outline>
</glyph>
<glyph name="n" format="1">
  <advance width="597"/>
  <unicode hex="006E"/>
  <outline>
    <contour>
      <point x="66" y="511" type="line"/>
      <point x="66" y="0" type="line"/>
      <point x="212" y="0" type="line"/>
      <point x="212" y="314" type="line" smooth="yes"/>
      <point x="212" y="371"/>
      <point x="256" y="415"/>
      <point x="307" y="415" type="curve" smooth="yes"/>
      <point x="354" y="415"/>
      <point x="387" y="377"/>
      <point x="387" y="325" type="curve" smooth="yes"/>
      <point x="387" y="0" type="line"/>
      <point x="533" y="0" type="line"/>
      <point x="533" y="357" type="line" smooth="yes"/>
      <point x="533" y="468"/>
      <point x="452" y="521"/>
      <point x="354" y="521" type="curve" smooth="yes"/>
      <point x="275" y="521"/>
      <point x="223" y="479"/>
      <point x="191" y="436" type="curve"/>
      <point x="175" y="511" type="line"/>
    </contour>
    <contour>
      <point x="299" y="511" type="move" name="top"/>
    </contour>
    <contour>
      <point x="299" y="0" type="move" name="bottom"/>
    </contour>
  </outline>
</glyph>
<glyph name="o" format="1">
  <advance width="602"/>
  <unicode hex="006F"/>
  <outline>
    <contour>
      <point x="559" y="270" type="line" smooth="yes"/>
      <point x="559" y="429"/>
      <point x="450" y="521"/>
      <point x="309" y="521" type="curve" smooth="yes"/>
      <point x="293" y="521" type="line" smooth="yes"/>
      <point x="152" y="521"/>
      <point x="43" y="429"/>
      <point x="43" y="270" type="curve" smooth="yes"/>
      <point x="43" y="241" type="line" smooth="yes"/>
      <point x="43" y="82"/>
      <point x="152" y="-10"/>
      <point x="293" y="-10" type="curve" smooth="yes"/>
      <point x="309" y="-10" type="line" smooth="yes"/>
      <point x="450" y="-10"/>
      <point x="559" y="82"/>
      <point x="559" y="241" type="curve" smooth="yes"/>
    </contour>
    <contour>
      <point x="411" y="215" type="line" smooth="yes"/>
      <point x="411" y="131"/>
      <point x="363" y="90"/>
      <point x="301" y="90" type="curve" smooth="yes"/>
      <point x="239" y="90"/>
      <point x="191" y="131"/>
      <point x="191" y="215" type="curve" smooth="yes"/>
      <point x="191" y="296" type="line" smooth="yes"/>
      <point x="191" y="380"/>
      <point x="239" y="421"/>
      <point x="301" y="421" type="curve" smooth="yes"/>
      <point x="363" y="421"/>
      <point x="411" y="380"/>
      <point x="411" y="296" type="curve" smooth="yes"/>
    </contour>
    <contour>
      <point x="301" y="511" type="move" name="top"/>
    </contour>
  </outline>
</glyph>
<glyph name="p" format="1">
  <advance width="595"/>
  <unicode hex="0070"/>
  <outline>
    <contour>
      <point x="66" y="511" type="line"/>
      <point x="66" y="-181" type="line"/>
      <point x="212" y="-181" type="line"/>
      <point x="212" y="59" type="line"/>
      <point x="237" y="26"/>
      <point x="285" y="-10"/>
      <point x="355" y="-10" type="curve" smooth="yes"/>
      <point x="464" y="-10"/>
      <point x="552" y="76"/>
      <point x="552" y="247" type="curve" smooth="yes"/>
      <point x="552" y="258" type="line" smooth="yes"/>
      <point x="552" y="438"/>
      <point x="457" y="521"/>
      <point x="340" y="521" type="curve" smooth="yes"/>
      <point x="273" y="521"/>
      <point x="228" y="489"/>
      <point x="196" y="447" type="curve"/>
      <point x="191" y="469"/>
      <point x="186" y="490"/>
      <point x="181" y="511" type="curve"/>
    </contour>
    <contour>
      <point x="404" y="217" type="line" smooth="yes"/>
      <point x="404" y="136"/>
      <point x="362" y="96"/>
      <point x="308" y="96" type="curve" smooth="yes"/>
      <point x="254" y="96"/>
      <point x="212" y="136"/>
      <point x="212" y="217" type="curve" smooth="yes"/>
      <point x="212" y="300" type="line" smooth="yes"/>
      <point x="212" y="381"/>
      <point x="254" y="421"/>
      <point x="308" y="421" type="curve" smooth="yes"/>
      <point x="362" y="421"/>
      <point x="404" y="381"/>
      <point x="404" y="300" type="curve" smooth="yes"/>
    </contour>
  </outline>
</glyph>
<glyph name="r" format="1">
  <advance width="489"/>
  <unicode hex="0072"/>
  <outline>
    <contour>
      <point x="475" y="313" type="line"/>
      <point x="475" y="313"/>
      <point x="479" y="348"/>
      <point x="479" y="364" type="curve" smooth="yes"/>
      <point x="479" y="455"/>
      <point x="430" y="521"/>
      <point x="335" y="521" type="curve" smooth="yes"/>
      <point x="239" y="521"/>
      <point x="196" y="447"/>
      <point x="192" y="436" type="curve"/>
      <point x="174" y="511" type="line"/>
      <point x="66" y="511" type="line"/>
      <point x="66" y="0" type="line"/>
      <point x="210" y="0" type="line"/>
      <point x="210" y="316" type="line" smooth="yes"/>
      <point x="210" y="367"/>
      <point x="232" y="412"/>
      <point x="282" y="412" type="curve" smooth="yes"/>
      <point x="336" y="412"/>
      <point x="353" y="371"/>
      <point x="353" y="336" type="curve" smooth="yes"/>
      <point x="353" y="313" type="line"/>
    </contour>
    <contour>
      <point x="165" y="511" type="move" name="top"/>
    </contour>
    <contour>
      <point x="138" y="0" type="move" name="bottom"/>
    </contour>
  </outline>
</glyph>
<glyph name="s" format="1">
  <advance width="539"/>
  <unicode hex="0073"/>
  <outline>
    <contour>
      <point x="30" y="163" type="line"/>
      <point x="30" y="159"/>
      <point x="29" y="153"/>
      <point x="29" y="143" type="curve" smooth="yes"/>
      <point x="29" y="51"/>
      <point x="119" y="-10"/>
      <point x="244" y="-10" type="curve" smooth="yes"/>
      <point x="277" y="-10" type="line" smooth="yes"/>
      <point x="395" y="-10"/>
      <point x="504" y="32"/>
      <point x="504" y="162" type="curve" smooth="yes"/>
      <point x="504" y="374"/>
      <point x="178" y="283"/>
      <point x="178" y="376" type="curve" smooth="yes"/>
      <point x="178" y="404"/>
      <point x="216" y="421"/>
      <point x="271" y="421" type="curve" smooth="yes"/>
      <point x="328" y="421"/>
      <point x="363" y="403"/>
      <point x="363" y="361" type="curve"/>
      <point x="491" y="361" type="line"/>
      <point x="491" y="362"/>
      <point x="493" y="372"/>
      <point x="493" y="383" type="curve" smooth="yes"/>
      <point x="493" y="467"/>
      <point x="391" y="521"/>
      <point x="287" y="521" type="curve" smooth="yes"/>
      <point x="267" y="521" type="line" smooth="yes"/>
      <point x="151" y="521"/>
      <point x="45" y="467"/>
      <point x="45" y="359" type="curve" smooth="yes"/>
      <point x="45" y="150"/>
      <point x="369" y="241"/>
      <point x="369" y="140" type="curve" smooth="yes"/>
      <point x="369" y="101"/>
      <point x="310" y="90"/>
      <point x="266" y="90" type="curve" smooth="yes"/>
      <point x="213" y="90"/>
      <point x="158" y="105"/>
      <point x="158" y="156" type="curve" smooth="yes"/>
      <point x="158" y="163" type="line"/>
    </contour>
    <contour>
      <point x="270" y="511" type="move" name="top"/>
    </contour>
    <contour>
      <point x="270" y="0" type="move" name="bottom"/>
    </contour>
  </outline>
</glyph>
<glyph name="t" format="1">
  <advance width="371"/>
  <unicode hex="0074"/>
  <outline>
    <contour>
      <point x="343" y="103" type="line"/>
      <point x="327" y="96"/>
      <point x="296" y="90"/>
      <point x="281" y="90" type="curve" smooth="yes"/>
      <point x="253" y="90"/>
      <point x="224" y="99"/>
      <point x="224" y="158" type="curve" smooth="yes"/>
      <point x="224" y="411" type="line"/>
      <point x="343" y="411" type="line"/>
      <point x="343" y="511" type="line"/>
      <point x="224" y="511" type="line"/>
      <point x="224" y="674" type="line"/>
      <point x="134" y="674" type="line"/>
      <point x="83" y="511" type="line"/>
      <point x="22" y="511" type="line"/>
      <point x="22" y="411" type="line"/>
      <point x="78" y="411" type="line"/>
      <point x="78" y="133" type="line" smooth="yes"/>
      <point x="78" y="27"/>
      <point x="135" y="-10"/>
      <point x="233" y="-10" type="curve" smooth="yes"/>
      <point x="265" y="-10"/>
      <point x="316" y="-2"/>
      <point x="343" y="9" type="curve"/>
    </contour>
    <contour>
      <point x="151" y="256" type="move" name="center"/>
    </contour>
    <contour>
      <point x="186" y="0" type="move" name="bottom"/>
    </contour>
    <contour>
      <point x="431" y="686" type="move" name="topright"/>
    </contour>
  </outline>
</glyph>
<glyph name="v" format="1">
  <advance width="536"/>
  <unicode hex="0076"/>
  <outline>
    <contour>
      <point x="530" y="511" type="line"/>
      <point x="388" y="511" type="line"/>
      <point x="277" y="169" type="line"/>
      <point x="272" y="169" type="line"/>
      <point x="161" y="511" type="line"/>
      <point x="6" y="511" type="line"/>
      <point x="185" y="0" type="line"/>
      <point x="350" y="0" type="line"/>
    </contour>
  </outline>
</glyph>
<glyph name="w" format="1">
  <advance width="820"/>
  <unicode hex="0077"/>
  <outline>
    <contour>
      <point x="413" y="285" type="line"/>
      <point x="497" y="0" type="line"/>
      <point x="658" y="0" type="line"/>
      <point x="814" y="511" type="line"/>
      <point x="672" y="511" type="line"/>
      <point x="643" y="405"/>
      <point x="613" y="300"/>
      <point x="583" y="195" type="curve"/>
      <point x="577" y="195" type="line"/>
      <point x="547" y="300"/>
      <point x="518" y="405"/>
      <point x="488" y="511" type="curve"/>
      <point x="342" y="511" type="line"/>
      <point x="312" y="405"/>
      <point x="281" y="300"/>
      <point x="251" y="195" type="curve"/>
      <point x="245" y="195" type="line"/>
      <point x="216" y="300"/>
      <point x="187" y="405"/>
      <point x="157" y="511" type="curve"/>
      <point x="6" y="511" type="line"/>
      <point x="162" y="0" type="line"/>
      <point x="325" y="0" type="line"/>
      <point x="353" y="95"/>
      <point x="380" y="190"/>
      <point x="407" y="285" type="curve"/>
    </contour>
    <contour>
      <point x="410" y="511" type="move" name="top"/>
    </contour>
  </outline>
</glyph>
<glyph name="x" format="1">
  <advance width="553"/>
  <unicode hex="0078"/>
  <outline>
    <contour>
      <point x="164" y="0" type="line"/>
      <point x="200" y="55"/>
      <point x="234" y="110"/>
      <point x="269" y="165" type="curve"/>
      <point x="273" y="165" type="line"/>
      <point x="377" y="0" type="line"/>
      <point x="546" y="0" type="line"/>
      <point x="369" y="265" type="line"/>
      <point x="536" y="511" type="line"/>
      <point x="378" y="511" type="line"/>
      <point x="347" y="462"/>
      <point x="317" y="413"/>
      <point x="285" y="365" type="curve"/>
      <point x="281" y="365" type="line"/>
      <point x="250" y="413"/>
      <point x="221" y="462"/>
      <point x="190" y="511" type="curve"/>
      <point x="20" y="511" type="line"/>
      <point x="185" y="264" type="line"/>
      <point x="6" y="0" type="line"/>
    </contour>
  </outline>
</glyph>
<glyph name="y" format="1">
  <advance width="536"/>
  <unicode hex="0079"/>
  <outline>
    <contour>
      <point x="530" y="511" type="line"/>
      <point x="386" y="511" type="line"/>
      <point x="280" y="190" type="line"/>
      <point x="274" y="190" type="line"/>
      <point x="161" y="511" type="line"/>
      <point x="6" y="511" type="line"/>
      <point x="199" y="10" type="line"/>
      <point x="181" y="-53"/>
      <point x="151" y="-83"/>
      <point x="108" y="-83" type="curve" smooth="yes"/>
      <point x="84" y="-83"/>
      <point x="55" y="-75"/>
      <point x="41" y="-69" type="curve"/>
      <point x="41" y="-172" type="line"/>
      <point x="63" y="-182"/>
      <point x="92" y="-187"/>
      <point x="127" y="-187" type="curve" smooth="yes"/>
      <point x="236" y="-187"/>
      <point x="303" y="-92"/>
      <point x="348" y="28" type="curve" smooth="yes"/>
    </contour>
    <contour>
      <point x="268" y="511" type="move" name="top"/>
    </contour>
  </outline>
</glyph>
<glyph name="z" format="1">
  <advance width="486"/>
  <unicode hex="007A"/>
  <outline>
    <contour>
      <point x="455" y="0" type="line"/>
      <point x="455" y="100" type="line"/>
      <point x="228" y="100" type="line"/>
      <point x="447" y="462" type="line"/>
      <point x="447" y="511" type="line"/>
      <point x="49" y="511" type="line"/>
      <point x="49" y="411" type="line"/>
      <point x="254" y="411" type="line"/>
      <point x="36" y="50" type="line"/>
      <point x="36" y="0" type="line"/>
    </contour>
    <contour>
      <point x="243" y="511" type="move" name="top"/>
    </contour>
  </outline>
</glyph>
<glyph name="braceleft" format="1">
  <advance width="347"/>
  <unicode hex="007B"/>
  <outline>
    <contour>
      <point x="40" y="224" type="line"/>
      <point x="75" y="224"/>
      <point x="117" y="206"/>
      <point x="117" y="168" type="curve" smooth="yes"/>
      <point x="117" y="-33" type="line" smooth="yes"/>
      <point x="117" y="-152"/>
      <point x="226" y="-159"/>
      <point x="307" y="-159" type="curve"/>
      <point x="307" y="-100" type="line"/>
      <point x="260" y="-100"/>
      <point x="231" y="-91"/>
      <point x="228" y="-18" type="curve" smooth="yes"/>
      <point x="221" y="156" type="line" smooth="yes"/>
      <point x="218" y="221"/>
      <point x="192" y="259"/>
      <point x="126" y="259" type="curve"/>
      <point x="126" y="268" type="line"/>
      <point x="192" y="268"/>
      <point x="218" y="306"/>
      <point x="221" y="371" type="curve" smooth="yes"/>
      <point x="228" y="545" type="line" smooth="yes"/>
      <point x="231" y="618"/>
      <point x="260" y="627"/>
      <point x="307" y="627" type="curve"/>
      <point x="307" y="686" type="line"/>
      <point x="226" y="686"/>
      <point x="117" y="678"/>
      <point x="117" y="560" type="curve" smooth="yes"/>
      <point x="117" y="360" type="line" smooth="yes"/>
      <point x="117" y="319"/>
      <point x="75" y="303"/>
      <point x="40" y="303" type="curve"/>
    </contour>
  </outline>
</glyph>
<glyph name="exclamdown" format="1">
  <advance width="290"/>
  <unicode hex="00A1"/>
  <outline>
    <contour>
      <point x="218" y="511" type="line"/>
      <point x="72" y="511" type="line"/>
      <point x="72" y="364" type="line"/>
      <point x="218" y="364" type="line"/>
    </contour>
    <contour>
      <point x="195" y="309" type="line"/>
      <point x="98" y="309" type="line"/>
      <point x="57" y="-175" type="line"/>
      <point x="234" y="-175" type="line"/>
    </contour>
  </outline>
</glyph>
<glyph name="cent" format="1">
  <advance width="571"/>
  <unicode hex="00A2"/>
  <outline>
    <contour>
      <point x="193" y="382" type="line" smooth="yes"/>
      <point x="193" y="451"/>
      <point x="228" y="507"/>
      <point x="290" y="507" type="curve" smooth="yes"/>
      <point x="352" y="507"/>
      <point x="381" y="459"/>
      <point x="381" y="393" type="curve"/>
      <point x="526" y="393" type="line"/>
      <point x="526" y="520"/>
      <point x="435" y="595"/>
      <point x="330" y="605" type="curve"/>
      <point x="343" y="693" type="line"/>
      <point x="242" y="693" type="line"/>
      <point x="254" y="605" type="line"/>
      <point x="131" y="591"/>
      <point x="45" y="501"/>
      <point x="45" y="356" type="curve" smooth="yes"/>
      <point x="45" y="327" type="line" smooth="yes"/>
      <point x="45" y="181"/>
      <point x="126" y="91"/>
      <point x="254" y="77" type="curve"/>
      <point x="242" y="-8" type="line"/>
      <point x="343" y="-8" type="line"/>
      <point x="331" y="77" type="line"/>
      <point x="435" y="86"/>
      <point x="526" y="152"/>
      <point x="526" y="289" type="curve"/>
      <point x="388" y="289" type="line"/>
      <point x="388" y="213"/>
      <point x="349" y="176"/>
      <point x="289" y="176" type="curve" smooth="yes"/>
      <point x="228" y="176"/>
      <point x="193" y="228"/>
      <point x="193" y="293" type="curve" smooth="yes"/>
    </contour>
  </outline>
</glyph>
<glyph name="currency" format="1">
  <advance width="663"/>
  <unicode hex="00A4"/>
  <outline>
    <contour>
      <point x="82" y="281"/>
      <point x="100" y="230"/>
      <point x="131" y="192" type="curve"/>
      <point x="75" y="137" type="line"/>
      <point x="130" y="82" type="line"/>
      <point x="148" y="101"/>
      <point x="166" y="119"/>
      <point x="185" y="137" type="curve"/>
      <point x="222" y="107"/>
      <point x="274" y="90"/>
      <point x="330" y="90" type="curve" smooth="yes"/>
      <point x="387" y="90"/>
      <point x="440" y="108"/>
      <point x="476" y="139" type="curve"/>
      <point x="494" y="120"/>
      <point x="514" y="101"/>
      <point x="532" y="83" type="curve"/>
      <point x="586" y="137" type="line"/>
      <point x="568" y="155"/>
      <point x="549" y="173"/>
      <point x="531" y="192" type="curve"/>
      <point x="561" y="230"/>
      <point x="578" y="283"/>
      <point x="578" y="338" type="curve" smooth="yes"/>
      <point x="578" y="393"/>
      <point x="561" y="447"/>
      <point x="533" y="482" type="curve"/>
      <point x="588" y="537" type="line"/>
      <point x="568" y="556"/>
      <point x="549" y="575"/>
      <point x="530" y="595" type="curve"/>
      <point x="474" y="539" type="line"/>
      <point x="440" y="567"/>
      <point x="387" y="586"/>
      <point x="330" y="586" type="curve" smooth="yes"/>
      <point x="276" y="586"/>
      <point x="221" y="567"/>
      <point x="185" y="539" type="curve"/>
      <point x="131" y="593" type="line"/>
      <point x="76" y="538" type="line"/>
      <point x="130" y="483" type="line"/>
      <point x="99" y="447"/>
      <point x="82" y="393"/>
      <point x="82" y="338" type="curve" smooth="yes"/>
    </contour>
    <contour>
      <point x="177" y="425"/>
      <point x="244" y="496"/>
      <point x="330" y="496" type="curve" smooth="yes"/>
      <point x="418" y="496"/>
      <point x="484" y="424"/>
      <point x="484" y="338" type="curve" smooth="yes"/>
      <point x="484" y="251"/>
      <point x="418" y="179"/>
      <point x="330" y="179" type="curve" smooth="yes"/>
      <point x="244" y="179"/>
      <point x="177" y="250"/>
      <point x="177" y="338" type="curve" smooth="yes"/>
    </contour>
  </outline>
</glyph>
<glyph name="yen" format="1">
  <advance width="642"/>
  <unicode hex="00A5"/>
  <outline>
    <contour>
      <point x="49" y="370" type="line"/>
      <point x="185" y="370" type="line"/>
      <point x="197" y="350"/>
      <point x="208" y="330"/>
      <point x="219" y="310" type="curve"/>
      <point x="49" y="310" type="line"/>
      <point x="49" y="231" type="line"/>
      <point x="245" y="231" type="line"/>
      <point x="245" y="0" type="line"/>
      <point x="398" y="0" type="line"/>
      <point x="398" y="231" type="line"/>
      <point x="598" y="231" type="line"/>
      <point x="598" y="310" type="line"/>
      <point x="424" y="310" type="line"/>
      <point x="457" y="370" type="line"/>
      <point x="598" y="370" type="line"/>
      <point x="598" y="448" type="line"/>
      <point x="500" y="448" type="line"/>
      <point x="632" y="686" type="line"/>
      <point x="474" y="686" type="line"/>
      <point x="427" y="595"/>
      <point x="379" y="504"/>
      <point x="331" y="414" type="curve"/>
      <point x="327" y="414" type="line"/>
      <point x="279" y="504"/>
      <point x="231" y="595"/>
      <point x="184" y="686" type="curve"/>
      <point x="10" y="686" type="line"/>
      <point x="142" y="448" type="line"/>
      <point x="49" y="448" type="line"/>
    </contour>
  </outline>
</glyph>
<glyph name="brokenbar" format="1">
  <advance width="277"/>
  <unicode hex="00A6"/>
  <outline>
    <contour>
      <point x="78" y="0" type="line"/>
      <point x="198" y="0" type="line"/>
      <point x="198" y="270" type="line"/>
      <point x="78" y="270" type="line"/>
    </contour>
    <contour>
      <point x="78" y="415" type="line"/>
      <point x="198" y="415" type="line"/>
      <point x="198" y="686" type="line"/>
      <point x="78" y="686" type="line"/>
    </contour>
  </outline>
</glyph>
<glyph name="section" format="1">
  <advance width="550"/>
  <unicode hex="00A7"/>
  <outline>
    <contour>
      <point x="52" y="482"/>
      <point x="79" y="434"/>
      <point x="121" y="407" type="curve"/>
      <point x="77" y="379"/>
      <point x="39" y="327"/>
      <point x="39" y="258" type="curve" smooth="yes"/>
      <point x="39" y="66"/>
      <point x="364" y="76"/>
      <point x="364" y="-37" type="curve" smooth="yes"/>
      <point x="364" y="-67"/>
      <point x="330" y="-89"/>
      <point x="273" y="-89" type="curve" smooth="yes"/>
      <point x="216" y="-89"/>
      <point x="185" y="-62"/>
      <point x="185" y="-27" type="curve"/>
      <point x="56" y="-27" type="line"/>
      <point x="56" y="-39" type="line" smooth="yes"/>
      <point x="56" y="-137"/>
      <point x="156" y="-185"/>
      <point x="273" y="-185" type="curve" smooth="yes"/>
      <point x="392" y="-185"/>
      <point x="498" y="-135"/>
      <point x="498" y="-26" type="curve" smooth="yes"/>
      <point x="498" y="28"/>
      <point x="471" y="76"/>
      <point x="428" y="103" type="curve"/>
      <point x="472" y="131"/>
      <point x="511" y="183"/>
      <point x="511" y="252" type="curve" smooth="yes"/>
      <point x="511" y="444"/>
      <point x="186" y="434"/>
      <point x="186" y="548" type="curve" smooth="yes"/>
      <point x="186" y="577"/>
      <point x="220" y="599"/>
      <point x="277" y="599" type="curve" smooth="yes"/>
      <point x="334" y="599"/>
      <point x="365" y="575"/>
      <point x="365" y="536" type="curve"/>
      <point x="494" y="536" type="line"/>
      <point x="494" y="550" type="line" smooth="yes"/>
      <point x="494" y="646"/>
      <point x="393" y="696"/>
      <point x="276" y="696" type="curve" smooth="yes"/>
      <point x="158" y="696"/>
      <point x="52" y="646"/>
      <point x="52" y="536" type="curve" smooth="yes"/>
    </contour>
    <contour>
      <point x="391" y="185"/>
      <point x="368" y="160"/>
      <point x="347" y="149" type="curve"/>
      <point x="275" y="183"/>
      <point x="162" y="215"/>
      <point x="162" y="291" type="curve" smooth="yes"/>
      <point x="162" y="323"/>
      <point x="184" y="348"/>
      <point x="206" y="359" type="curve"/>
      <point x="277" y="325"/>
      <point x="391" y="293"/>
      <point x="391" y="217" type="curve" smooth="yes"/>
    </contour>
  </outline>
</glyph>
<glyph name="dieresis" format="1">
  <advance width="440"/>
  <unicode hex="00A8"/>
  <outline>
    <contour>
      <point x="59" y="618" type="line"/>
      <point x="180" y="618" type="line"/>
      <point x="180" y="740" type="line"/>
      <point x="59" y="740" type="line"/>
    </contour>
    <contour>
      <point x="263" y="618" type="line"/>
      <point x="384" y="618" type="line"/>
      <point x="384" y="740" type="line"/>
      <point x="263" y="740" type="line"/>
    </contour>
    <contour>
      <point x="222" y="511" type="move" name="_top"/>
    </contour>
  </outline>
</glyph>
<glyph name="ordfeminine" format="1">
  <advance width="389"/>
  <unicode hex="00AA"/>
  <outline>
    <contour>
      <point x="231" y="502" type="line" smooth="yes"/>
      <point x="231" y="461"/>
      <point x="192" y="434"/>
      <point x="162" y="434" type="curve" smooth="yes"/>
      <point x="132" y="434"/>
      <point x="117" y="444"/>
      <point x="117" y="471" type="curve" smooth="yes"/>
      <point x="117" y="506"/>
      <point x="156" y="519"/>
      <point x="231" y="519" type="curve"/>
    </contour>
    <contour>
      <point x="231" y="569" type="line"/>
      <point x="106" y="569"/>
      <point x="25" y="553"/>
      <point x="25" y="464" type="curve" smooth="yes"/>
      <point x="25" y="386"/>
      <point x="81" y="374"/>
      <point x="131" y="374" type="curve" smooth="yes"/>
      <point x="180" y="374"/>
      <point x="214" y="400"/>
      <point x="235" y="426" type="curve"/>
      <point x="239" y="394"/>
      <point x="260" y="374"/>
      <point x="307" y="374" type="curve" smooth="yes"/>
      <point x="337" y="374"/>
      <point x="356" y="384"/>
      <point x="360" y="386" type="curve"/>
      <point x="360" y="441" type="line"/>
      <point x="356" y="439"/>
      <point x="344" y="434"/>
      <point x="335" y="434" type="curve" smooth="yes"/>
      <point x="327" y="434"/>
      <point x="318" y="441"/>
      <point x="318" y="456" type="curve" smooth="yes"/>
      <point x="318" y="600" type="line" smooth="yes"/>
      <point x="318" y="657"/>
      <point x="274" y="696"/>
      <point x="184" y="696" type="curve" smooth="yes"/>
      <point x="171" y="696" type="line" smooth="yes"/>
      <point x="90" y="696"/>
      <point x="35" y="658"/>
      <point x="35" y="606" type="curve" smooth="yes"/>
      <point x="35" y="601"/>
      <point x="35" y="598"/>
      <point x="36" y="595" type="curve"/>
      <point x="121" y="595" type="line"/>
      <point x="121" y="600" type="line" smooth="yes"/>
      <point x="121" y="613"/>
      <point x="140" y="635"/>
      <point x="176" y="635" type="curve" smooth="yes"/>
      <point x="217" y="635"/>
      <point x="231" y="615"/>
      <point x="231" y="589" type="curve" smooth="yes"/>
    </contour>
  </outline>
</glyph>
<glyph name="logicalnot" format="1">
  <advance width="600"/>
  <unicode hex="00AC"/>
  <outline>
    <contour>
      <point x="564" y="468" type="line"/>
      <point x="35" y="468" type="line"/>
      <point x="35" y="347" type="line"/>
      <point x="447" y="347" type="line"/>
      <point x="447" y="166" type="line"/>
      <point x="564" y="166" type="line"/>
    </contour>
  </outline>
</glyph>
<glyph name="softhyphen" format="1">
  <advance width="260"/>
  <unicode hex="00AD"/>
  <outline>
    <contour>
      <point x="0" y="208" type="line"/>
      <point x="253" y="208" type="line"/>
      <point x="253" y="336" type="line"/>
      <point x="0" y="336" type="line"/>
    </contour>
  </outline>
</glyph>
<glyph name="plusminus" format="1">
  <advance width="600"/>
  <unicode hex="00B1"/>
  <outline>
    <contour>
      <point x="553" y="0" type="line"/>
      <point x="553" y="105" type="line"/>
      <point x="46" y="105" type="line"/>
      <point x="46" y="0" type="line"/>
    </contour>
    <contour>
      <point x="352" y="511" type="line"/>
      <point x="247" y="511" type="line"/>
      <point x="247" y="382" type="line"/>
      <point x="44" y="382" type="line"/>
      <point x="44" y="276" type="line"/>
      <point x="247" y="276" type="line"/>
      <point x="247" y="147" type="line"/>
      <point x="352" y="147" type="line"/>
      <point x="352" y="276" type="line"/>
      <point x="556" y="276" type="line"/>
      <point x="556" y="382" type="line"/>
      <point x="352" y="382" type="line"/>
    </contour>
  </outline>
</glyph>
<glyph name="periodcentered" format="1">
  <advance width="277"/>
  <unicode hex="00B7"/>
  <outline>
    <contour>
      <point x="65" y="214" type="line"/>
      <point x="211" y="214" type="line"/>
      <point x="211" y="362" type="line"/>
      <point x="65" y="362" type="line"/>
    </contour>
  </outline>
</glyph>
<glyph name="onesuperior" format="1">
  <advance width="319"/>
  <unicode hex="00B9"/>
  <outline>
    <contour>
      <point x="289" y="422" type="line"/>
      <point x="289" y="487" type="line"/>
      <point x="210" y="487" type="line"/>
      <point x="210" y="796" type="line"/>
      <point x="181" y="796" type="line"/>
      <point x="137" y="772"/>
      <point x="82" y="751"/>
      <point x="40" y="748" type="curve"/>
      <point x="40" y="700" type="line"/>
      <point x="130" y="700" type="line"/>
      <point x="130" y="487" type="line"/>
      <point x="40" y="487" type="line"/>
      <point x="40" y="422" type="line"/>
    </contour>
  </outline>
</glyph>
<glyph name="ordmasculine" format="1">
  <advance width="367"/>
  <unicode hex="00BA"/>
  <outline>
    <contour>
      <point x="342" y="544" type="line" smooth="yes"/>
      <point x="342" y="640"/>
      <point x="276" y="696"/>
      <point x="191" y="696" type="curve" smooth="yes"/>
      <point x="180" y="696" type="line" smooth="yes"/>
      <point x="95" y="696"/>
      <point x="29" y="640"/>
      <point x="29" y="544" type="curve" smooth="yes"/>
      <point x="29" y="526" type="line" smooth="yes"/>
      <point x="29" y="429"/>
      <point x="95" y="374"/>
      <point x="180" y="374" type="curve" smooth="yes"/>
      <point x="191" y="374" type="line" smooth="yes"/>
      <point x="276" y="374"/>
      <point x="342" y="429"/>
      <point x="342" y="526" type="curve" smooth="yes"/>
    </contour>
    <contour>
      <point x="252" y="510" type="line" smooth="yes"/>
      <point x="252" y="460"/>
      <point x="223" y="434"/>
      <point x="185" y="434" type="curve" smooth="yes"/>
      <point x="148" y="434"/>
      <point x="119" y="460"/>
      <point x="119" y="510" type="curve" smooth="yes"/>
      <point x="119" y="560" type="line" smooth="yes"/>
      <point x="119" y="610"/>
      <point x="148" y="635"/>
      <point x="185" y="635" type="curve" smooth="yes"/>
      <point x="223" y="635"/>
      <point x="252" y="610"/>
      <point x="252" y="560" type="curve" smooth="yes"/>
    </contour>
  </outline>
</glyph>
<glyph name="guillemotright" format="1">
  <advance width="459"/>
  <unicode hex="00BB"/>
  <outline>
    <contour>
      <point x="109" y="163" type="line"/>
      <point x="231" y="337" type="line"/>
      <point x="109" y="511" type="line"/>
      <point x="47" y="511" type="line"/>
      <point x="136" y="337" type="line"/>
      <point x="47" y="163" type="line"/>
    </contour>
    <contour>
      <point x="291" y="163" type="line"/>
      <point x="412" y="337" type="line"/>
      <point x="291" y="511" type="line"/>
      <point x="229" y="511" type="line"/>
      <point x="318" y="337" type="line"/>
      <point x="229" y="163" type="line"/>
    </contour>
  </outline>
</glyph>
<glyph name="onequarter" format="1">
  <advance width="745"/>
  <unicode hex="00BC"/>
  <outline>
    <contour>
      <point x="636" y="686" type="line"/>
      <point x="567" y="686" type="line"/>
      <point x="147" y="0" type="line"/>
      <point x="219" y="0" type="line"/>
    </contour>
    <contour>
      <point x="586" y="153" type="line"/>
      <point x="482" y="153" type="line"/>
      <point x="514" y="190"/>
      <point x="581" y="303"/>
      <point x="599" y="382" type="curve"/>
      <point x="522" y="382" type="line"/>
      <point x="502" y="313"/>
      <point x="458" y="213"/>
      <point x="420" y="153" type="curve"/>
      <point x="420" y="88" type="line"/>
      <point x="586" y="88" type="line"/>
      <point x="586" y="0" type="line"/>
      <point x="664" y="0" type="line"/>
      <point x="664" y="88" type="line"/>
      <point x="715" y="88" type="line"/>
      <point x="715" y="153" type="line"/>
      <point x="664" y="153" type="line"/>
      <point x="664" y="336" type="line"/>
      <point x="629" y="336" type="line"/>
      <point x="622" y="307"/>
      <point x="605" y="264"/>
      <point x="586" y="235" type="curve"/>
    </contour>
    <contour>
      <point x="290" y="306" type="line"/>
      <point x="290" y="372" type="line"/>
      <point x="200" y="372" type="line"/>
      <point x="200" y="685" type="line"/>
      <point x="171" y="685" type="line"/>
      <point x="126" y="661"/>
      <point x="70" y="640"/>
      <point x="27" y="637" type="curve"/>
      <point x="27" y="588" type="line"/>
      <point x="119" y="588" type="line"/>
      <point x="119" y="372" type="line"/>
      <point x="28" y="372" type="line"/>
      <point x="28" y="306" type="line"/>
    </contour>
  </outline>
</glyph>
<glyph name="onehalf" format="1">
  <advance width="765"/>
  <unicode hex="00BD"/>
  <outline>
    <contour>
      <point x="628" y="686" type="line"/>
      <point x="559" y="686" type="line"/>
      <point x="139" y="0" type="line"/>
      <point x="211" y="0" type="line"/>
    </contour>
    <contour>
      <point x="449" y="0" type="line"/>
      <point x="722" y="0" type="line"/>
      <point x="722" y="70" type="line"/>
      <point x="551" y="70" type="line"/>
      <point x="557" y="78"/>
      <point x="576" y="92"/>
      <point x="582" y="96" type="curve"/>
      <point x="676" y="167"/>
      <point x="721" y="199"/>
      <point x="721" y="268" type="curve" smooth="yes"/>
      <point x="721" y="326"/>
      <point x="679" y="383"/>
      <point x="593" y="383" type="curve" smooth="yes"/>
      <point x="585" y="383" type="line" smooth="yes"/>
      <point x="478" y="383"/>
      <point x="449" y="300"/>
      <point x="449" y="257" type="curve" smooth="yes"/>
      <point x="449" y="254"/>
      <point x="449" y="251"/>
      <point x="450" y="247" type="curve"/>
      <point x="524" y="247" type="line"/>
      <point x="524" y="261" type="line" smooth="yes"/>
      <point x="524" y="275"/>
      <point x="534" y="316"/>
      <point x="582" y="316" type="curve" smooth="yes"/>
      <point x="615" y="316"/>
      <point x="640" y="296"/>
      <point x="640" y="266" type="curve" smooth="yes"/>
      <point x="640" y="243"/>
      <point x="631" y="220"/>
      <point x="604" y="199" type="curve" smooth="yes"/>
      <point x="568" y="171"/>
      <point x="528" y="144"/>
      <point x="496" y="112" type="curve"/>
      <point x="472" y="92"/>
      <point x="449" y="64"/>
      <point x="449" y="16" type="curve" smooth="yes"/>
    </contour>
    <contour>
      <point x="290" y="306" type="line"/>
      <point x="290" y="372" type="line"/>
      <point x="200" y="372" type="line"/>
      <point x="200" y="685" type="line"/>
      <point x="171" y="685" type="line"/>
      <point x="126" y="661"/>
      <point x="70" y="640"/>
      <point x="27" y="637" type="curve"/>
      <point x="27" y="588" type="line"/>
      <point x="119" y="588" type="line"/>
      <point x="119" y="372" type="line"/>
      <point x="28" y="372" type="line"/>
      <point x="28" y="306" type="line"/>
    </contour>
  </outline>
</glyph>
<glyph name="threequarters" format="1">
  <advance width="755"/>
  <unicode hex="00BE"/>
  <outline>
    <contour>
      <point x="639" y="686" type="line"/>
      <point x="570" y="686" type="line"/>
      <point x="150" y="0" type="line"/>
      <point x="222" y="0" type="line"/>
    </contour>
    <contour>
      <point x="37" y="412" type="line" smooth="yes"/>
      <point x="37" y="348"/>
      <point x="86" y="301"/>
      <point x="174" y="301" type="curve" smooth="yes"/>
      <point x="189" y="301" type="line" smooth="yes"/>
      <point x="273" y="301"/>
      <point x="326" y="347"/>
      <point x="326" y="409" type="curve" smooth="yes"/>
      <point x="326" y="457"/>
      <point x="300" y="487"/>
      <point x="260" y="500" type="curve"/>
      <point x="260" y="505" type="line"/>
      <point x="293" y="520"/>
      <point x="316" y="546"/>
      <point x="316" y="587" type="curve" smooth="yes"/>
      <point x="316" y="646"/>
      <point x="263" y="689"/>
      <point x="189" y="689" type="curve" smooth="yes"/>
      <point x="178" y="689" type="line" smooth="yes"/>
      <point x="101" y="689"/>
      <point x="47" y="646"/>
      <point x="47" y="586" type="curve" smooth="yes"/>
      <point x="47" y="575" type="line"/>
      <point x="121" y="575" type="line"/>
      <point x="121" y="607"/>
      <point x="147" y="624"/>
      <point x="177" y="624" type="curve" smooth="yes"/>
      <point x="208" y="624"/>
      <point x="235" y="609"/>
      <point x="235" y="577" type="curve" smooth="yes"/>
      <point x="235" y="544"/>
      <point x="210" y="528"/>
      <point x="179" y="528" type="curve" smooth="yes"/>
      <point x="134" y="528" type="line"/>
      <point x="134" y="469" type="line"/>
      <point x="173" y="469" type="line" smooth="yes"/>
      <point x="208" y="469"/>
      <point x="244" y="464"/>
      <point x="244" y="419" type="curve" smooth="yes"/>
      <point x="244" y="384"/>
      <point x="220" y="366"/>
      <point x="177" y="366" type="curve" smooth="yes"/>
      <point x="134" y="366"/>
      <point x="112" y="384"/>
      <point x="112" y="419" type="curve"/>
      <point x="37" y="419" type="line"/>
    </contour>
    <contour>
      <point x="586" y="153" type="line"/>
      <point x="482" y="153" type="line"/>
      <point x="514" y="190"/>
      <point x="581" y="303"/>
      <point x="599" y="382" type="curve"/>
      <point x="522" y="382" type="line"/>
      <point x="502" y="313"/>
      <point x="458" y="213"/>
      <point x="420" y="153" type="curve"/>
      <point x="420" y="88" type="line"/>
      <point x="586" y="88" type="line"/>
      <point x="586" y="0" type="line"/>
      <point x="664" y="0" type="line"/>
      <point x="664" y="88" type="line"/>
      <point x="715" y="88" type="line"/>
      <point x="715" y="153" type="line"/>
      <point x="664" y="153" type="line"/>
      <point x="664" y="336" type="line"/>
      <point x="629" y="336" type="line"/>
      <point x="622" y="307"/>
      <point x="605" y="264"/>
      <point x="586" y="235" type="curve"/>
    </contour>
  </outline>
</glyph>
<glyph name="questiondown" format="1">
  <advance width="572"/>
  <unicode hex="00BF"/>
  <outline>
    <contour>
      <point x="355" y="511" type="line"/>
      <point x="208" y="511" type="line"/>
      <point x="208" y="364" type="line"/>
      <point x="355" y="364" type="line"/>
    </contour>
    <contour>
      <point x="213" y="278" type="line" smooth="yes"/>
      <point x="213" y="204"/>
      <point x="50" y="186"/>
      <point x="50" y="20" type="curve" smooth="yes"/>
      <point x="50" y="-88"/>
      <point x="129" y="-185"/>
      <point x="275" y="-185" type="curve" smooth="yes"/>
      <point x="297" y="-185" type="line" smooth="yes"/>
      <point x="441" y="-185"/>
      <point x="533" y="-81"/>
      <point x="533" y="22" type="curve" smooth="yes"/>
      <point x="533" y="39"/>
      <point x="531" y="50"/>
      <point x="530" y="59" type="curve"/>
      <point x="389" y="59" type="line" smooth="yes"/>
      <point x="389" y="59"/>
      <point x="390" y="38"/>
      <point x="390" y="27" type="curve" smooth="yes"/>
      <point x="390" y="-10"/>
      <point x="375" y="-71"/>
      <point x="296" y="-71" type="curve" smooth="yes"/>
      <point x="233" y="-71"/>
      <point x="206" y="-32"/>
      <point x="206" y="18" type="curve" smooth="yes"/>
      <point x="206" y="124"/>
      <point x="349" y="153"/>
      <point x="349" y="252" type="curve" smooth="yes"/>
      <point x="349" y="310" type="line"/>
      <point x="213" y="310" type="line"/>
    </contour>
  </outline>
</glyph>
<glyph name="Adieresis" format="1">
  <advance width="686"/>
  <unicode hex="00C4"/>
  <outline>
    <contour>
      <point x="522" y="0" type="line"/>
      <point x="684" y="0" type="line"/>
      <point x="435" y="686" type="line"/>
      <point x="251" y="686" type="line"/>
      <point x="2" y="0" type="line"/>
      <point x="151" y="0" type="line"/>
      <point x="199" y="135" type="line"/>
      <point x="472" y="135" type="line"/>
    </contour>
    <contour>
      <point x="339" y="521" type="line"/>
      <point x="370" y="432"/>
      <point x="401" y="342"/>
      <point x="431" y="252" type="curve"/>
      <point x="241" y="252" type="line"/>
      <point x="272" y="342"/>
      <point x="303" y="432"/>
      <point x="334" y="521" type="curve"/>
    </contour>
    <contour>
      <point x="176" y="749" type="line"/>
      <point x="297" y="749" type="line"/>
      <point x="297" y="871" type="line"/>
      <point x="176" y="871" type="line"/>
    </contour>
    <contour>
      <point x="380" y="749" type="line"/>
      <point x="501" y="749" type="line"/>
      <point x="501" y="871" type="line"/>
      <point x="380" y="871" type="line"/>
    </contour>
  </outline>
</glyph>
<glyph name="Ccedilla" format="1">
  <advance width="683"/>
  <unicode hex="00C7"/>
  <outline>
    <contour>
      <point x="210" y="414" type="line" smooth="yes"/>
      <point x="210" y="519"/>
      <point x="274" y="573"/>
      <point x="354" y="573" type="curve" smooth="yes"/>
      <point x="440" y="573"/>
      <point x="488" y="519"/>
      <point x="488" y="414" type="curve"/>
      <point x="635" y="414" type="line"/>
      <point x="635" y="603"/>
      <point x="514" y="696"/>
      <point x="358" y="696" type="curve" smooth="yes"/>
      <point x="344" y="696" type="line" smooth="yes"/>
      <point x="180" y="696"/>
      <point x="48" y="586"/>
      <point x="48" y="392" type="curve" smooth="yes"/>
      <point x="48" y="294" type="line" smooth="yes"/>
      <point x="48" y="95"/>
      <point x="178" y="-10"/>
      <point x="348" y="-10" type="curve" smooth="yes"/>
      <point x="362" y="-10" type="line" smooth="yes"/>
      <point x="515" y="-10"/>
      <point x="635" y="88"/>
      <point x="635" y="270" type="curve"/>
      <point x="494" y="270" type="line"/>
      <point x="494" y="163"/>
      <point x="450" y="113"/>
      <point x="355" y="113" type="curve" smooth="yes"/>
      <point x="275" y="113"/>
      <point x="210" y="167"/>
      <point x="210" y="272" type="curve" smooth="yes"/>
    </contour>
    <contour>
      <point x="234" y="-168" type="line"/>
      <point x="261" y="-187"/>
      <point x="305" y="-197"/>
      <point x="342" y="-197" type="curve" smooth="yes"/>
      <point x="386" y="-197"/>
      <point x="461" y="-182"/>
      <point x="461" y="-107" type="curve" smooth="yes"/>
      <point x="461" y="-34"/>
      <point x="402" y="-17"/>
      <point x="345" y="-17" type="curve" smooth="yes"/>
      <point x="322" y="-17" type="line"/>
      <point x="322" y="-68" type="line"/>
      <point x="342" y="-68" type="line" smooth="yes"/>
      <point x="370" y="-68"/>
      <point x="387" y="-81"/>
      <point x="387" y="-104" type="curve" smooth="yes"/>
      <point x="387" y="-131"/>
      <point x="365" y="-142"/>
      <point x="338" y="-142" type="curve" smooth="yes"/>
      <point x="291" y="-142"/>
      <point x="261" y="-119"/>
      <point x="255" y="-116" type="curve"/>
    </contour>
  </outline>
</glyph>
<glyph name="Igrave" format="1">
  <advance width="461"/>
  <unicode hex="00CC"/>
  <outline>
    <contour>
      <point x="72" y="563" type="line"/>
      <point x="153" y="563" type="line"/>
      <point x="153" y="123" type="line"/>
      <point x="72" y="123" type="line"/>
      <point x="72" y="0" type="line"/>
      <point x="388" y="0" type="line"/>
      <point x="388" y="123" type="line"/>
      <point x="308" y="123" type="line"/>
      <point x="308" y="563" type="line"/>
      <point x="388" y="563" type="line"/>
      <point x="388" y="686" type="line"/>
      <point x="72" y="686" type="line"/>
    </contour>
    <contour>
      <point x="294" y="750" type="line"/>
      <point x="201" y="895" type="line"/>
      <point x="73" y="895" type="line"/>
      <point x="72" y="892" type="line"/>
      <point x="192" y="750" type="line"/>
    </contour>
  </outline>
</glyph>
<glyph name="Icircumflex" format="1">
  <advance width="461"/>
  <unicode hex="00CE"/>
  <outline>
    <contour>
      <point x="72" y="563" type="line"/>
      <point x="153" y="563" type="line"/>
      <point x="153" y="123" type="line"/>
      <point x="72" y="123" type="line"/>
      <point x="72" y="0" type="line"/>
      <point x="388" y="0" type="line"/>
      <point x="388" y="123" type="line"/>
      <point x="308" y="123" type="line"/>
      <point x="308" y="563" type="line"/>
      <point x="388" y="563" type="line"/>
      <point x="388" y="686" type="line"/>
      <point x="72" y="686" type="line"/>
    </contour>
    <contour>
      <point x="42" y="750" type="line"/>
      <point x="146" y="750" type="line"/>
      <point x="231" y="833" type="line"/>
      <point x="315" y="750" type="line"/>
      <point x="420" y="750" type="line"/>
      <point x="374" y="798"/>
      <point x="328" y="847"/>
      <point x="283" y="895" type="curve"/>
      <point x="180" y="895" type="line"/>
    </contour>
  </outline>
</glyph>
<glyph name="Idieresis" format="1">
  <advance width="461"/>
  <unicode hex="00CF"/>
  <outline>
    <contour>
      <point x="72" y="563" type="line"/>
      <point x="153" y="563" type="line"/>
      <point x="153" y="123" type="line"/>
      <point x="72" y="123" type="line"/>
      <point x="72" y="0" type="line"/>
      <point x="388" y="0" type="line"/>
      <point x="388" y="123" type="line"/>
      <point x="308" y="123" type="line"/>
      <point x="308" y="563" type="line"/>
      <point x="388" y="563" type="line"/>
      <point x="388" y="686" type="line"/>
      <point x="72" y="686" type="line"/>
    </contour>
    <contour>
      <point x="70" y="750" type="line"/>
      <point x="191" y="750" type="line"/>
      <point x="191" y="872" type="line"/>
      <point x="70" y="872" type="line"/>
    </contour>
    <contour>
      <point x="274" y="750" type="line"/>
      <point x="395" y="750" type="line"/>
      <point x="395" y="872" type="line"/>
      <point x="274" y="872" type="line"/>
    </contour>
  </outline>
</glyph>
<glyph name="Ntilde" format="1">
  <advance width="691"/>
  <unicode hex="00D1"/>
  <outline>
    <contour>
      <point x="618" y="0" type="line"/>
      <point x="618" y="686" type="line"/>
      <point x="477" y="686" type="line"/>
      <point x="477" y="283" type="line"/>
      <point x="474" y="280" type="line"/>
      <point x="455" y="309"/>
      <point x="438" y="340"/>
      <point x="419" y="368" type="curve" smooth="yes"/>
      <point x="203" y="686" type="line"/>
      <point x="72" y="686" type="line"/>
      <point x="72" y="0" type="line"/>
      <point x="213" y="0" type="line"/>
      <point x="213" y="402" type="line"/>
      <point x="217" y="405" type="line"/>
      <point x="217" y="405"/>
      <point x="254" y="342"/>
      <point x="272" y="316" type="curve" smooth="yes"/>
      <point x="487" y="0" type="line"/>
    </contour>
    <contour>
      <point x="490" y="873" type="line"/>
      <point x="483" y="850"/>
      <point x="465" y="835"/>
      <point x="437" y="835" type="curve" smooth="yes"/>
      <point x="383" y="835"/>
      <point x="331" y="873"/>
      <point x="267" y="873" type="curve" smooth="yes"/>
      <point x="189" y="873"/>
      <point x="140" y="808"/>
      <point x="140" y="749" type="curve"/>
      <point x="206" y="749" type="line"/>
      <point x="213" y="772"/>
      <point x="230" y="786"/>
      <point x="258" y="786" type="curve" smooth="yes"/>
      <point x="312" y="786"/>
      <point x="365" y="749"/>
      <point x="429" y="749" type="curve" smooth="yes"/>
      <point x="507" y="749"/>
      <point x="555" y="813"/>
      <point x="555" y="873" type="curve"/>
    </contour>
  </outline>
</glyph>
<glyph name="Oacute" format="1">
  <advance width="708"/>
  <unicode hex="00D3"/>
  <outline>
    <contour>
      <point x="660" y="392" type="line" smooth="yes"/>
      <point x="660" y="587"/>
      <point x="521" y="696"/>
      <point x="354" y="696" type="curve" smooth="yes"/>
      <point x="187" y="696"/>
      <point x="48" y="587"/>
      <point x="48" y="392" type="curve" smooth="yes"/>
      <point x="48" y="294" type="line" smooth="yes"/>
      <point x="48" y="99"/>
      <point x="187" y="-10"/>
      <point x="354" y="-10" type="curve" smooth="yes"/>
      <point x="521" y="-10"/>
      <point x="660" y="99"/>
      <point x="660" y="294" type="curve" smooth="yes"/>
    </contour>
    <contour>
      <point x="498" y="272" type="line" smooth="yes"/>
      <point x="498" y="167"/>
      <point x="436" y="113"/>
      <point x="354" y="113" type="curve" smooth="yes"/>
      <point x="272" y="113"/>
      <point x="210" y="167"/>
      <point x="210" y="272" type="curve" smooth="yes"/>
      <point x="210" y="414" type="line" smooth="yes"/>
      <point x="210" y="519"/>
      <point x="272" y="573"/>
      <point x="354" y="573" type="curve" smooth="yes"/>
      <point x="436" y="573"/>
      <point x="498" y="519"/>
      <point x="498" y="414" type="curve" smooth="yes"/>
    </contour>
    <contour>
      <point x="405" y="750" type="line"/>
      <point x="526" y="892" type="line"/>
      <point x="525" y="895" type="line"/>
      <point x="396" y="895" type="line"/>
      <point x="304" y="750" type="line"/>
    </contour>
  </outline>
</glyph>
<glyph name="Oslash" format="1">
  <advance width="708"/>
  <unicode hex="00D8"/>
  <outline>
    <contour>
      <point x="660" y="392" type="line" smooth="yes"/>
      <point x="660" y="492"/>
      <point x="623" y="570"/>
      <point x="564" y="622" type="curve"/>
      <point x="644" y="754" type="line"/>
      <point x="558" y="754" type="line"/>
      <point x="503" y="663" type="line"/>
      <point x="458" y="685"/>
      <point x="408" y="696"/>
      <point x="354" y="696" type="curve" smooth="yes"/>
      <point x="187" y="696"/>
      <point x="48" y="587"/>
      <point x="48" y="392" type="curve" smooth="yes"/>
      <point x="48" y="294" type="line" smooth="yes"/>
      <point x="48" y="194"/>
      <point x="84" y="117"/>
      <point x="142" y="66" type="curve"/>
      <point x="63" y="-65" type="line"/>
      <point x="149" y="-65" type="line"/>
      <point x="203" y="24" type="line"/>
      <point x="248" y="1"/>
      <point x="299" y="-10"/>
      <point x="354" y="-10" type="curve" smooth="yes"/>
      <point x="521" y="-10"/>
      <point x="660" y="99"/>
      <point x="660" y="294" type="curve" smooth="yes"/>
    </contour>
    <contour>
      <point x="498" y="272" type="line" smooth="yes"/>
      <point x="498" y="167"/>
      <point x="436" y="113"/>
      <point x="354" y="113" type="curve" smooth="yes"/>
      <point x="322" y="113"/>
      <point x="294" y="121"/>
      <point x="271" y="136" type="curve"/>
      <point x="484" y="490" type="line"/>
      <point x="493" y="468"/>
      <point x="498" y="443"/>
      <point x="498" y="414" type="curve" smooth="yes"/>
    </contour>
    <contour>
      <point x="210" y="414" type="line" smooth="yes"/>
      <point x="210" y="519"/>
      <point x="272" y="573"/>
      <point x="354" y="573" type="curve" smooth="yes"/>
      <point x="384" y="573"/>
      <point x="412" y="565"/>
      <point x="435" y="550" type="curve"/>
      <point x="222" y="199" type="line"/>
      <point x="214" y="219"/>
      <point x="210" y="244"/>
      <point x="210" y="272" type="curve" smooth="yes"/>
    </contour>
    <contour>
      <point x="354" y="686" type="move" name="top"/>
    </contour>
  </outline>
</glyph>
<glyph name="Yacute" format="1">
  <advance width="637"/>
  <unicode hex="00DD"/>
  <outline>
    <contour>
      <point x="630" y="686" type="line"/>
      <point x="472" y="686" type="line"/>
      <point x="329" y="414" type="line"/>
      <point x="324" y="414" type="line"/>
      <point x="181" y="686" type="line"/>
      <point x="7" y="686" type="line"/>
      <point x="242" y="263" type="line"/>
      <point x="242" y="0" type="line"/>
      <point x="396" y="0" type="line"/>
      <point x="396" y="263" type="line"/>
    </contour>
    <contour>
      <point x="376" y="750" type="line"/>
      <point x="497" y="892" type="line"/>
      <point x="496" y="895" type="line"/>
      <point x="367" y="895" type="line"/>
      <point x="275" y="750" type="line"/>
    </contour>
  </outline>
</glyph>
<glyph name="germandbls" format="1">
  <advance width="622"/>
  <unicode hex="00DF"/>
  <outline>
    <contour>
      <point x="585" y="290"/>
      <point x="536" y="363"/>
      <point x="465" y="388" type="curve"/>
      <point x="464" y="393" type="line"/>
      <point x="522" y="417"/>
      <point x="561" y="481"/>
      <point x="561" y="550" type="curve" smooth="yes"/>
      <point x="561" y="671"/>
      <point x="445" y="728"/>
      <point x="329" y="728" type="curve" smooth="yes"/>
      <point x="203" y="728"/>
      <point x="89" y="648"/>
      <point x="85" y="511" type="curve"/>
      <point x="25" y="511" type="line"/>
      <point x="25" y="411" type="line"/>
      <point x="85" y="411" type="line"/>
      <point x="85" y="-66" type="line"/>
      <point x="231" y="-66" type="line"/>
      <point x="231" y="526" type="line" smooth="yes"/>
      <point x="231" y="584"/>
      <point x="267" y="628"/>
      <point x="325" y="628" type="curve" smooth="yes"/>
      <point x="378" y="628"/>
      <point x="419" y="591"/>
      <point x="419" y="534" type="curve" smooth="yes"/>
      <point x="419" y="473"/>
      <point x="377" y="431"/>
      <point x="325" y="431" type="curve" smooth="yes"/>
      <point x="279" y="431" type="line"/>
      <point x="279" y="331" type="line"/>
      <point x="330" y="331" type="line" smooth="yes"/>
      <point x="391" y="331"/>
      <point x="440" y="290"/>
      <point x="440" y="224" type="curve" smooth="yes"/>
      <point x="440" y="145"/>
      <point x="391" y="100"/>
      <point x="330" y="100" type="curve" smooth="yes"/>
      <point x="279" y="100" type="line"/>
      <point x="279" y="0" type="line"/>
      <point x="352" y="0" type="line" smooth="yes"/>
      <point x="485" y="0"/>
      <point x="585" y="77"/>
      <point x="585" y="214" type="curve" smooth="yes"/>
    </contour>
  </outline>
</glyph>
<glyph name="ecircumflex" format="1">
  <advance width="588"/>
  <unicode hex="00EA"/>
  <outline>
    <contour>
      <point x="402" y="191" type="line"/>
      <point x="402" y="123"/>
      <point x="363" y="90"/>
      <point x="303" y="90" type="curve" smooth="yes"/>
      <point x="233" y="90"/>
      <point x="193" y="142"/>
      <point x="193" y="207" type="curve" smooth="yes"/>
      <point x="193" y="231" type="line"/>
      <point x="543" y="231" type="line"/>
      <point x="543" y="307" type="line" smooth="yes"/>
      <point x="543" y="444"/>
      <point x="433" y="521"/>
      <point x="311" y="521" type="curve" smooth="yes"/>
      <point x="295" y="521" type="line" smooth="yes"/>
      <point x="155" y="521"/>
      <point x="45" y="429"/>
      <point x="45" y="270" type="curve" smooth="yes"/>
      <point x="45" y="241" type="line" smooth="yes"/>
      <point x="45" y="82"/>
      <point x="153" y="-10"/>
      <point x="295" y="-10" type="curve" smooth="yes"/>
      <point x="311" y="-10" type="line" smooth="yes"/>
      <point x="429" y="-10"/>
      <point x="542" y="50"/>
      <point x="542" y="191" type="curve"/>
    </contour>
    <contour>
      <point x="369" y="421"/>
      <point x="395" y="374"/>
      <point x="395" y="311" type="curve"/>
      <point x="193" y="311" type="line"/>
      <point x="198" y="373"/>
      <point x="236" y="421"/>
      <point x="296" y="421" type="curve" smooth="yes"/>
    </contour>
    <contour>
      <point x="112" y="575" type="line"/>
      <point x="216" y="575" type="line"/>
      <point x="301" y="658" type="line"/>
      <point x="385" y="575" type="line"/>
      <point x="490" y="575" type="line"/>
      <point x="444" y="623"/>
      <point x="398" y="672"/>
      <point x="353" y="720" type="curve"/>
      <point x="250" y="720" type="line"/>
    </contour>
  </outline>
</glyph>
<glyph name="edieresis" format="1">
  <advance width="588"/>
  <unicode hex="00EB"/>
  <outline>
    <contour>
      <point x="402" y="191" type="line"/>
      <point x="402" y="123"/>
      <point x="363" y="90"/>
      <point x="303" y="90" type="curve" smooth="yes"/>
      <point x="233" y="90"/>
      <point x="193" y="142"/>
      <point x="193" y="207" type="curve" smooth="yes"/>
      <point x="193" y="231" type="line"/>
      <point x="543" y="231" type="line"/>
      <point x="543" y="307" type="line" smooth="yes"/>
      <point x="543" y="444"/>
      <point x="433" y="521"/>
      <point x="311" y="521" type="curve" smooth="yes"/>
      <point x="295" y="521" type="line" smooth="yes"/>
      <point x="155" y="521"/>
      <point x="45" y="429"/>
      <point x="45" y="270" type="curve" smooth="yes"/>
      <point x="45" y="241" type="line" smooth="yes"/>
      <point x="45" y="82"/>
      <point x="153" y="-10"/>
      <point x="295" y="-10" type="curve" smooth="yes"/>
      <point x="311" y="-10" type="line" smooth="yes"/>
      <point x="429" y="-10"/>
      <point x="542" y="50"/>
      <point x="542" y="191" type="curve"/>
    </contour>
    <contour>
      <point x="369" y="421"/>
      <point x="395" y="374"/>
      <point x="395" y="311" type="curve"/>
      <point x="193" y="311" type="line"/>
      <point x="198" y="373"/>
      <point x="236" y="421"/>
      <point x="296" y="421" type="curve" smooth="yes"/>
    </contour>
    <contour>
      <point x="138" y="598" type="line"/>
      <point x="259" y="598" type="line"/>
      <point x="259" y="720" type="line"/>
      <point x="138" y="720" type="line"/>
    </contour>
    <contour>
      <point x="342" y="598" type="line"/>
      <point x="463" y="598" type="line"/>
      <point x="463" y="720" type="line"/>
      <point x="342" y="720" type="line"/>
    </contour>
  </outline>
</glyph>
<glyph name="igrave" format="1">
  <advance width="278"/>
  <unicode hex="00EC"/>
  <outline>
    <contour>
      <point x="212" y="0" type="line"/>
      <point x="212" y="511" type="line"/>
      <point x="66" y="511" type="line"/>
      <point x="66" y="0" type="line"/>
    </contour>
    <contour>
      <point x="206" y="575" type="line"/>
      <point x="113" y="720" type="line"/>
      <point x="-15" y="720" type="line"/>
      <point x="-16" y="717" type="line"/>
      <point x="104" y="575" type="line"/>
    </contour>
  </outline>
</glyph>
<glyph name="icircumflex" format="1">
  <advance width="278"/>
  <unicode hex="00EE"/>
  <outline>
    <contour>
      <point x="212" y="0" type="line"/>
      <point x="212" y="511" type="line"/>
      <point x="66" y="511" type="line"/>
      <point x="66" y="0" type="line"/>
    </contour>
    <contour>
      <point x="-49" y="575" type="line"/>
      <point x="55" y="575" type="line"/>
      <point x="140" y="658" type="line"/>
      <point x="224" y="575" type="line"/>
      <point x="329" y="575" type="line"/>
      <point x="283" y="623"/>
      <point x="237" y="672"/>
      <point x="192" y="720" type="curve"/>
      <point x="89" y="720" type="line"/>
    </contour>
  </outline>
</glyph>
<glyph name="oacute" format="1">
  <advance width="606"/>
  <unicode hex="00F3"/>
  <outline>
    <contour>
      <point x="561" y="270" type="line" smooth="yes"/>
      <point x="561" y="429"/>
      <point x="452" y="521"/>
      <point x="311" y="521" type="curve" smooth="yes"/>
      <point x="295" y="521" type="line" smooth="yes"/>
      <point x="154" y="521"/>
      <point x="45" y="429"/>
      <point x="45" y="270" type="curve" smooth="yes"/>
      <point x="45" y="241" type="line" smooth="yes"/>
      <point x="45" y="82"/>
      <point x="154" y="-10"/>
      <point x="295" y="-10" type="curve" smooth="yes"/>
      <point x="311" y="-10" type="line" smooth="yes"/>
      <point x="452" y="-10"/>
      <point x="561" y="82"/>
      <point x="561" y="241" type="curve" smooth="yes"/>
    </contour>
    <contour>
      <point x="413" y="215" type="line" smooth="yes"/>
      <point x="413" y="131"/>
      <point x="365" y="90"/>
      <point x="303" y="90" type="curve" smooth="yes"/>
      <point x="241" y="90"/>
      <point x="193" y="131"/>
      <point x="193" y="215" type="curve" smooth="yes"/>
      <point x="193" y="296" type="line" smooth="yes"/>
      <point x="193" y="380"/>
      <point x="241" y="421"/>
      <point x="303" y="421" type="curve" smooth="yes"/>
      <point x="365" y="421"/>
      <point x="413" y="380"/>
      <point x="413" y="296" type="curve" smooth="yes"/>
    </contour>
    <contour>
      <point x="355" y="575" type="line"/>
      <point x="476" y="717" type="line"/>
      <point x="475" y="720" type="line"/>
      <point x="346" y="720" type="line"/>
      <point x="254" y="575" type="line"/>
    </contour>
  </outline>
</glyph>
<glyph name="ocircumflex" format="1">
  <advance width="606"/>
  <unicode hex="00F4"/>
  <outline>
    <contour>
      <point x="561" y="270" type="line" smooth="yes"/>
      <point x="561" y="429"/>
      <point x="452" y="521"/>
      <point x="311" y="521" type="curve" smooth="yes"/>
      <point x="295" y="521" type="line" smooth="yes"/>
      <point x="154" y="521"/>
      <point x="45" y="429"/>
      <point x="45" y="270" type="curve" smooth="yes"/>
      <point x="45" y="241" type="line" smooth="yes"/>
      <point x="45" y="82"/>
      <point x="154" y="-10"/>
      <point x="295" y="-10" type="curve" smooth="yes"/>
      <point x="311" y="-10" type="line" smooth="yes"/>
      <point x="452" y="-10"/>
      <point x="561" y="82"/>
      <point x="561" y="241" type="curve" smooth="yes"/>
    </contour>
    <contour>
      <point x="413" y="215" type="line" smooth="yes"/>
      <point x="413" y="131"/>
      <point x="365" y="90"/>
      <point x="303" y="90" type="curve" smooth="yes"/>
      <point x="241" y="90"/>
      <point x="193" y="131"/>
      <point x="193" y="215" type="curve" smooth="yes"/>
      <point x="193" y="296" type="line" smooth="yes"/>
      <point x="193" y="380"/>
      <point x="241" y="421"/>
      <point x="303" y="421" type="curve" smooth="yes"/>
      <point x="365" y="421"/>
      <point x="413" y="380"/>
      <point x="413" y="296" type="curve" smooth="yes"/>
    </contour>
    <contour>
      <point x="112" y="575" type="line"/>
      <point x="216" y="575" type="line"/>
      <point x="301" y="658" type="line"/>
      <point x="385" y="575" type="line"/>
      <point x="490" y="575" type="line"/>
      <point x="444" y="623"/>
      <point x="398" y="672"/>
      <point x="353" y="720" type="curve"/>
      <point x="250" y="720" type="line"/>
    </contour>
  </outline>
</glyph>
<glyph name="divide" format="1">
  <advance width="600"/>
  <unicode hex="00F7"/>
  <outline>
    <contour>
      <point x="556" y="203" type="line"/>
      <point x="556" y="309" type="line"/>
      <point x="44" y="309" type="line"/>
      <point x="44" y="203" type="line"/>
    </contour>
    <contour>
      <point x="248" y="34" type="line"/>
      <point x="353" y="34" type="line"/>
      <point x="353" y="142" type="line"/>
      <point x="248" y="142" type="line"/>
    </contour>
    <contour>
      <point x="248" y="369" type="line"/>
      <point x="353" y="369" type="line"/>
      <point x="353" y="478" type="line"/>
      <point x="248" y="478" type="line"/>
    </contour>
  </outline>
</glyph>
<glyph name="thorn" format="1">
  <advance width="597"/>
  <unicode hex="00FE"/>
  <outline>
    <contour>
      <point x="66" y="720" type="line"/>
      <point x="66" y="-181" type="line"/>
      <point x="212" y="-181" type="line"/>
      <point x="212" y="59" type="line"/>
      <point x="237" y="26"/>
      <point x="285" y="-10"/>
      <point x="355" y="-10" type="curve" smooth="yes"/>
      <point x="464" y="-10"/>
      <point x="552" y="76"/>
      <point x="552" y="247" type="curve" smooth="yes"/>
      <point x="552" y="258" type="line" smooth="yes"/>
      <point x="552" y="438"/>
      <point x="457" y="521"/>
      <point x="340" y="521" type="curve" smooth="yes"/>
      <point x="283" y="521"/>
      <point x="242" y="498"/>
      <point x="212" y="466" type="curve"/>
      <point x="212" y="720" type="line"/>
    </contour>
    <contour>
      <point x="404" y="217" type="line" smooth="yes"/>
      <point x="404" y="136"/>
      <point x="362" y="96"/>
      <point x="308" y="96" type="curve" smooth="yes"/>
      <point x="254" y="96"/>
      <point x="212" y="136"/>
      <point x="212" y="217" type="curve" smooth="yes"/>
      <point x="212" y="300" type="line" smooth="yes"/>
      <point x="212" y="381"/>
      <point x="254" y="421"/>
      <point x="308" y="421" type="curve" smooth="yes"/>
      <point x="362" y="421"/>
      <point x="404" y="381"/>
      <point x="404" y="300" type="curve" smooth="yes"/>
    </contour>
  </outline>
</glyph>
<glyph name="ydieresis" format="1">
  <advance width="545"/>
  <unicode hex="00FF"/>
  <outline>
    <contour>
      <point x="534" y="511" type="line"/>
      <point x="390" y="511" type="line"/>
      <point x="284" y="190" type="line"/>
      <point x="278" y="190" type="line"/>
      <point x="165" y="511" type="line"/>
      <point x="10" y="511" type="line"/>
      <point x="203" y="10" type="line"/>
      <point x="185" y="-53"/>
      <point x="155" y="-83"/>
      <point x="112" y="-83" type="curve" smooth="yes"/>
      <point x="88" y="-83"/>
      <point x="59" y="-75"/>
      <point x="45" y="-69" type="curve"/>
      <point x="45" y="-172" type="line"/>
      <point x="67" y="-182"/>
      <point x="96" y="-187"/>
      <point x="131" y="-187" type="curve" smooth="yes"/>
      <point x="240" y="-187"/>
      <point x="307" y="-92"/>
      <point x="352" y="28" type="curve" smooth="yes"/>
    </contour>
    <contour>
      <point x="114" y="598" type="line"/>
      <point x="235" y="598" type="line"/>
      <point x="235" y="720" type="line"/>
      <point x="114" y="720" type="line"/>
    </contour>
    <contour>
      <point x="318" y="598" type="line"/>
      <point x="439" y="598" type="line"/>
      <point x="439" y="720" type="line"/>
      <point x="318" y="720" type="line"/>
    </contour>
  </outline>
</glyph>
<glyph name="iogonek" format="1">
  <advance width="278"/>
  <unicode hex="012F"/>
  <outline>
    <contour>
      <point x="65" y="605" type="line"/>
      <point x="213" y="605" type="line"/>
      <point x="213" y="720" type="line"/>
      <point x="65" y="720" type="line"/>
    </contour>
    <component base="dotlessi"/>
    <component base="ogonek" xOffset="15"/>
  </outline>
</glyph>
<glyph name="OE" format="1">
  <advance width="1024"/>
  <unicode hex="0152"/>
  <outline>
    <contour>
      <point x="984" y="0" type="line"/>
      <point x="977" y="41"/>
      <point x="970" y="82"/>
      <point x="962" y="123" type="curve"/>
      <point x="652" y="123" type="line"/>
      <point x="652" y="286" type="line"/>
      <point x="928" y="286" type="line"/>
      <point x="928" y="407" type="line"/>
      <point x="652" y="407" type="line"/>
      <point x="652" y="562" type="line"/>
      <point x="949" y="562" type="line"/>
      <point x="976" y="686" type="line"/>
      <point x="499" y="686" type="line"/>
      <point x="499" y="657" type="line"/>
      <point x="453" y="684"/>
      <point x="400" y="695"/>
      <point x="340" y="695" type="curve" smooth="yes"/>
      <point x="178" y="695"/>
      <point x="48" y="578"/>
      <point x="48" y="391" type="curve" smooth="yes"/>
      <point x="48" y="294" type="line" smooth="yes"/>
      <point x="48" y="107"/>
      <point x="178" y="-10"/>
      <point x="340" y="-10" type="curve" smooth="yes"/>
      <point x="399" y="-10"/>
      <point x="453" y="-1"/>
      <point x="498" y="29" type="curve"/>
      <point x="498" y="0" type="line"/>
    </contour>
    <contour>
      <point x="498" y="272" type="line" smooth="yes"/>
      <point x="498" y="167"/>
      <point x="436" y="113"/>
      <point x="354" y="113" type="curve" smooth="yes"/>
      <point x="272" y="113"/>
      <point x="210" y="167"/>
      <point x="210" y="272" type="curve" smooth="yes"/>
      <point x="210" y="414" type="line" smooth="yes"/>
      <point x="210" y="519"/>
      <point x="272" y="573"/>
      <point x="354" y="573" type="curve" smooth="yes"/>
      <point x="436" y="573"/>
      <point x="498" y="519"/>
      <point x="498" y="414" type="curve" smooth="yes"/>
    </contour>
    <contour>
      <point x="512" y="686" type="move" name="top"/>
    </contour>
  </outline>
</glyph>
<glyph name="scaron" format="1">
  <advance width="541"/>
  <unicode hex="0161"/>
  <outline>
    <contour>
      <point x="30" y="163" type="line"/>
      <point x="30" y="159"/>
      <point x="29" y="153"/>
      <point x="29" y="143" type="curve" smooth="yes"/>
      <point x="29" y="51"/>
      <point x="119" y="-10"/>
      <point x="244" y="-10" type="curve" smooth="yes"/>
      <point x="277" y="-10" type="line" smooth="yes"/>
      <point x="395" y="-10"/>
      <point x="504" y="32"/>
      <point x="504" y="162" type="curve" smooth="yes"/>
      <point x="504" y="374"/>
      <point x="178" y="283"/>
      <point x="178" y="376" type="curve" smooth="yes"/>
      <point x="178" y="404"/>
      <point x="216" y="421"/>
      <point x="271" y="421" type="curve" smooth="yes"/>
      <point x="328" y="421"/>
      <point x="363" y="403"/>
      <point x="363" y="361" type="curve"/>
      <point x="491" y="361" type="line"/>
      <point x="491" y="362"/>
      <point x="493" y="372"/>
      <point x="493" y="383" type="curve" smooth="yes"/>
      <point x="493" y="467"/>
      <point x="391" y="521"/>
      <point x="287" y="521" type="curve" smooth="yes"/>
      <point x="267" y="521" type="line" smooth="yes"/>
      <point x="151" y="521"/>
      <point x="45" y="467"/>
      <point x="45" y="359" type="curve" smooth="yes"/>
      <point x="45" y="150"/>
      <point x="369" y="241"/>
      <point x="369" y="140" type="curve" smooth="yes"/>
      <point x="369" y="101"/>
      <point x="310" y="90"/>
      <point x="266" y="90" type="curve" smooth="yes"/>
      <point x="213" y="90"/>
      <point x="158" y="105"/>
      <point x="158" y="156" type="curve" smooth="yes"/>
      <point x="158" y="163" type="line"/>
    </contour>
    <contour>
      <point x="218" y="575" type="line"/>
      <point x="321" y="575" type="line"/>
      <point x="366" y="623"/>
      <point x="412" y="672"/>
      <point x="458" y="720" type="curve"/>
      <point x="354" y="720" type="line"/>
      <point x="270" y="637" type="line"/>
      <point x="185" y="720" type="line"/>
      <point x="80" y="720" type="line"/>
    </contour>
  </outline>
</glyph>
<glyph name="Ydieresis" format="1">
  <advance width="637"/>
  <unicode hex="0178"/>
  <outline>
    <contour>
      <point x="630" y="686" type="line"/>
      <point x="472" y="686" type="line"/>
      <point x="329" y="414" type="line"/>
      <point x="324" y="414" type="line"/>
      <point x="181" y="686" type="line"/>
      <point x="7" y="686" type="line"/>
      <point x="242" y="263" type="line"/>
      <point x="242" y="0" type="line"/>
      <point x="396" y="0" type="line"/>
      <point x="396" y="263" type="line"/>
    </contour>
    <contour>
      <point x="168" y="749" type="line"/>
      <point x="289" y="749" type="line"/>
      <point x="289" y="871" type="line"/>
      <point x="168" y="871" type="line"/>
    </contour>
    <contour>
      <point x="372" y="749" type="line"/>
      <point x="493" y="749" type="line"/>
      <point x="493" y="871" type="line"/>
      <point x="372" y="871" type="line"/>
    </contour>
  </outline>
</glyph>
<glyph name="florin" format="1">
  <advance width="381"/>
  <unicode hex="0192"/>
  <outline>
    <contour>
      <point x="425" y="707" type="line"/>
      <point x="400" y="720"/>
      <point x="349" y="728"/>
      <point x="318" y="728" type="curve" smooth="yes"/>
      <point x="226" y="728"/>
      <point x="158" y="688"/>
      <point x="144" y="589" type="curve" smooth="yes"/>
      <point x="133" y="511" type="line"/>
      <point x="72" y="511" type="line"/>
      <point x="57" y="402" type="line"/>
      <point x="119" y="402" type="line"/>
      <point x="57" y="-25" type="line" smooth="yes"/>
      <point x="49" y="-82"/>
      <point x="18" y="-86"/>
      <point x="-8" y="-86" type="curve" smooth="yes"/>
      <point x="-23" y="-86"/>
      <point x="-54" y="-80"/>
      <point x="-69" y="-74" type="curve"/>
      <point x="-81" y="-164" type="line"/>
      <point x="-56" y="-177"/>
      <point x="-5" y="-184"/>
      <point x="27" y="-184" type="curve" smooth="yes"/>
      <point x="118" y="-184"/>
      <point x="186" y="-144"/>
      <point x="200" y="-46" type="curve" smooth="yes"/>
      <point x="264" y="402" type="line"/>
      <point x="384" y="402" type="line"/>
      <point x="399" y="511" type="line"/>
      <point x="279" y="511" type="line"/>
      <point x="287" y="569" type="line" smooth="yes"/>
      <point x="295" y="625"/>
      <point x="326" y="630"/>
      <point x="353" y="630" type="curve" smooth="yes"/>
      <point x="368" y="630"/>
      <point x="399" y="623"/>
      <point x="413" y="618" type="curve"/>
    </contour>
  </outline>
</glyph>
<glyph name="caron" format="1">
  <advance width="538"/>
  <unicode hex="02C7"/>
  <outline>
    <contour>
      <point x="216" y="575" type="line"/>
      <point x="319" y="575" type="line"/>
      <point x="364" y="623"/>
      <point x="410" y="672"/>
      <point x="456" y="720" type="curve"/>
      <point x="352" y="720" type="line"/>
      <point x="268" y="637" type="line"/>
      <point x="183" y="720" type="line"/>
      <point x="78" y="720" type="line"/>
    </contour>
    <contour>
      <point x="267" y="511" type="move" name="_top"/>
    </contour>
  </outline>
</glyph>
<glyph name="breve" format="1">
  <advance width="520"/>
  <unicode hex="02D8"/>
  <outline>
    <contour>
      <point x="367" y="613"/>
      <point x="453" y="680"/>
      <point x="453" y="737" type="curve"/>
      <point x="371" y="737" type="line"/>
      <point x="366" y="715"/>
      <point x="316" y="687"/>
      <point x="260" y="687" type="curve" smooth="yes"/>
      <point x="202" y="687"/>
      <point x="155" y="713"/>
      <point x="149" y="737" type="curve"/>
      <point x="68" y="737" type="line"/>
      <point x="68" y="680"/>
      <point x="154" y="613"/>
      <point x="260" y="613" type="curve" smooth="yes"/>
    </contour>
    <contour>
      <point x="261" y="511" type="move" name="_top"/>
    </contour>
  </outline>
</glyph>
<glyph name="Delta" format="1">
  <advance width="700"/>
  <unicode hex="0394"/>
  <outline>
    <contour>
      <point x="61" y="0" type="line"/>
      <point x="639" y="0" type="line"/>
      <point x="639" y="79" type="line"/>
      <point x="410" y="686" type="line"/>
      <point x="289" y="686" type="line"/>
      <point x="61" y="79" type="line"/>
    </contour>
    <contour>
      <point x="350" y="561" type="line"/>
      <point x="523" y="92" type="line"/>
      <point x="177" y="92" type="line"/>
    </contour>
  </outline>
</glyph>
<glyph name="mu" format="1">
  <advance width="610"/>
  <unicode hex="03BC"/>
  <outline>
    <contour>
      <point x="531" y="511" type="line"/>
      <point x="385" y="511" type="line"/>
      <point x="385" y="197" type="line" smooth="yes"/>
      <point x="385" y="140"/>
      <point x="341" y="96"/>
      <point x="290" y="96" type="curve" smooth="yes"/>
      <point x="243" y="96"/>
      <point x="210" y="134"/>
      <point x="210" y="186" type="curve" smooth="yes"/>
      <point x="210" y="511" type="line"/>
      <point x="64" y="511" type="line"/>
      <point x="64" y="-161" type="line"/>
      <point x="210" y="-161" type="line"/>
      <point x="210" y="-57" type="line" smooth="yes"/>
      <point x="210" y="-35"/>
      <point x="205" y="-16"/>
      <point x="201" y="-3" type="curve"/>
      <point x="214" y="-8"/>
      <point x="229" y="-10"/>
      <point x="243" y="-10" type="curve" smooth="yes"/>
      <point x="315" y="-10"/>
      <point x="364" y="25"/>
      <point x="397" y="63" type="curve"/>
      <point x="407" y="18"/>
      <point x="443" y="-10"/>
      <point x="513" y="-10" type="curve" smooth="yes"/>
      <point x="563" y="-10"/>
      <point x="594" y="7"/>
      <point x="601" y="11" type="curve"/>
      <point x="601" y="101" type="line"/>
      <point x="595" y="98"/>
      <point x="575" y="90"/>
      <point x="560" y="90" type="curve" smooth="yes"/>
      <point x="547" y="90"/>
      <point x="531" y="98"/>
      <point x="531" y="120" type="curve" smooth="yes"/>
    </contour>
  </outline>
</glyph>
<glyph name="emdash" format="1">
  <advance width="911"/>
  <unicode hex="2014"/>
  <outline>
    <contour>
      <point x="910" y="209" type="line"/>
      <point x="910" y="335" type="line"/>
      <point x="0" y="335" type="line"/>
      <point x="0" y="209" type="line"/>
    </contour>
  </outline>
</glyph>
<glyph name="quoteleft" format="1">
  <advance width="277"/>
  <unicode hex="2018"/>
  <outline>
    <contour>
      <point x="107" y="686" type="line"/>
      <point x="65" y="518" type="line"/>
      <point x="65" y="395" type="line"/>
      <point x="211" y="395" type="line"/>
      <point x="211" y="542" type="line"/>
      <point x="148" y="542" type="line"/>
      <point x="159" y="590"/>
      <point x="170" y="638"/>
      <point x="180" y="686" type="curve"/>
    </contour>
  </outline>
</glyph>
<glyph name="quoteright" format="1">
  <advance width="277"/>
  <unicode hex="2019"/>
  <outline>
    <contour>
      <point x="169" y="395" type="line"/>
      <point x="211" y="563" type="line"/>
      <point x="211" y="686" type="line"/>
      <point x="65" y="686" type="line"/>
      <point x="65" y="539" type="line"/>
      <point x="128" y="539" type="line"/>
      <point x="117" y="491"/>
      <point x="106" y="443"/>
      <point x="96" y="395" type="curve"/>
    </contour>
  </outline>
</glyph>
<glyph name="quotedblbase" format="1">
  <advance width="472"/>
  <unicode hex="201E"/>
  <outline>
    <contour>
      <point x="364" y="-144" type="line"/>
      <point x="406" y="24" type="line"/>
      <point x="406" y="147" type="line"/>
      <point x="260" y="147" type="line"/>
      <point x="260" y="0" type="line"/>
      <point x="323" y="0" type="line"/>
      <point x="312" y="-48"/>
      <point x="301" y="-96"/>
      <point x="291" y="-144" type="curve"/>
    </contour>
    <contour>
      <point x="169" y="-144" type="line"/>
      <point x="211" y="24" type="line"/>
      <point x="211" y="147" type="line"/>
      <point x="65" y="147" type="line"/>
      <point x="65" y="0" type="line"/>
      <point x="128" y="0" type="line"/>
      <point x="117" y="-48"/>
      <point x="106" y="-96"/>
      <point x="96" y="-144" type="curve"/>
    </contour>
  </outline>
</glyph>
<glyph name="dagger" format="1">
  <advance width="572"/>
  <unicode hex="2020"/>
  <outline>
    <contour>
      <point x="532" y="392" type="line"/>
      <point x="532" y="510" type="line"/>
      <point x="325" y="491" type="line"/>
      <point x="344" y="686" type="line"/>
      <point x="228" y="686" type="line"/>
      <point x="247" y="491" type="line"/>
      <point x="40" y="510" type="line"/>
      <point x="40" y="392" type="line"/>
      <point x="247" y="411" type="line"/>
      <point x="227" y="-166" type="line"/>
      <point x="345" y="-166" type="line"/>
      <point x="325" y="411" type="line"/>
    </contour>
  </outline>
</glyph>
<glyph name="bullet" format="1">
  <advance width="544"/>
  <unicode hex="2022"/>
  <outline>
    <contour>
      <point x="432" y="433"/>
      <point x="360" y="505"/>
      <point x="271" y="505" type="curve" smooth="yes"/>
      <point x="182" y="505"/>
      <point x="111" y="433"/>
      <point x="111" y="343" type="curve" smooth="yes"/>
      <point x="111" y="254"/>
      <point x="182" y="181"/>
      <point x="271" y="181" type="curve" smooth="yes"/>
      <point x="360" y="181"/>
      <point x="432" y="254"/>
      <point x="432" y="343" type="curve" smooth="yes"/>
    </contour>
  </outline>
</glyph>
<glyph name="Euro" format="1">
  <advance width="582"/>
  <unicode hex="20AC"/>
  <outline>
    <contour>
      <point x="30" y="371" type="line"/>
      <point x="114" y="371" type="line"/>
      <point x="114" y="310" type="line"/>
      <point x="30" y="310" type="line"/>
      <point x="30" y="231" type="line"/>
      <point x="125" y="231" type="line"/>
      <point x="169" y="45"/>
      <point x="316" y="-8"/>
      <point x="445" y="-8" type="curve" smooth="yes"/>
      <point x="480" y="-8"/>
      <point x="512" y="0"/>
      <point x="540" y="8" type="curve"/>
      <point x="540" y="137" type="line"/>
      <point x="518" y="127"/>
      <point x="491" y="118"/>
      <point x="463" y="118" type="curve" smooth="yes"/>
      <point x="390" y="118"/>
      <point x="316" y="150"/>
      <point x="281" y="231" type="curve"/>
      <point x="445" y="231" type="line"/>
      <point x="445" y="310" type="line"/>
      <point x="261" y="310" type="line"/>
      <point x="260" y="320"/>
      <point x="260" y="330"/>
      <point x="260" y="342" type="curve" smooth="yes"/>
      <point x="260" y="351"/>
      <point x="260" y="362"/>
      <point x="261" y="371" type="curve"/>
      <point x="445" y="371" type="line"/>
      <point x="445" y="449" type="line"/>
      <point x="278" y="449" type="line"/>
      <point x="309" y="530"/>
      <point x="379" y="567"/>
      <point x="451" y="567" type="curve" smooth="yes"/>
      <point x="485" y="567"/>
      <point x="518" y="560"/>
      <point x="540" y="554" type="curve"/>
      <point x="540" y="679" type="line"/>
      <point x="509" y="686"/>
      <point x="470" y="692"/>
      <point x="427" y="692" type="curve" smooth="yes"/>
      <point x="298" y="692"/>
      <point x="164" y="620"/>
      <point x="125" y="449" type="curve"/>
      <point x="30" y="449" type="line"/>
    </contour>
  </outline>
</glyph>
<glyph name="uni2113" format="1">
  <advance width="505"/>
  <unicode hex="2113"/>
  <outline>
    <contour>
      <point x="217" y="230" type="line"/>
      <point x="366" y="230"/>
      <point x="473" y="316"/>
      <point x="473" y="474" type="curve" smooth="yes"/>
      <point x="473" y="498" type="line" smooth="yes"/>
      <point x="473" y="627"/>
      <point x="403" y="698"/>
      <point x="288" y="698" type="curve" smooth="yes"/>
      <point x="172" y="698"/>
      <point x="89" y="625"/>
      <point x="89" y="489" type="curve" smooth="yes"/>
      <point x="89" y="403" type="line"/>
      <point x="235" y="403" type="line"/>
      <point x="235" y="489" type="line" smooth="yes"/>
      <point x="235" y="556"/>
      <point x="265" y="590"/>
      <point x="309" y="590" type="curve" smooth="yes"/>
      <point x="351" y="590"/>
      <point x="381" y="557"/>
      <point x="381" y="494" type="curve" smooth="yes"/>
      <point x="381" y="472" type="line" smooth="yes"/>
      <point x="381" y="368"/>
      <point x="322" y="315"/>
      <point x="217" y="315" type="curve"/>
    </contour>
    <contour>
      <point x="19" y="230" type="line"/>
      <point x="191" y="230" type="line"/>
      <point x="191" y="316" type="line"/>
      <point x="19" y="316" type="line"/>
    </contour>
    <contour>
      <point x="89" y="448" type="line"/>
      <point x="89" y="163" type="line" smooth="yes"/>
      <point x="89" y="35"/>
      <point x="163" y="-11"/>
      <point x="272" y="-11" type="curve" smooth="yes"/>
      <point x="327" y="-11"/>
      <point x="381" y="1"/>
      <point x="414" y="20" type="curve"/>
      <point x="414" y="111" type="line"/>
      <point x="385" y="99"/>
      <point x="350" y="87"/>
      <point x="317" y="87" type="curve" smooth="yes"/>
      <point x="272" y="87"/>
      <point x="235" y="109"/>
      <point x="235" y="176" type="curve" smooth="yes"/>
      <point x="235" y="448" type="line"/>
    </contour>
  </outline>
</glyph>
<glyph name="trademark" format="1">
  <advance width="904"/>
  <unicode hex="2122"/>
  <outline>
    <contour>
      <point x="360" y="608" type="line"/>
      <point x="360" y="686" type="line"/>
      <point x="28" y="686" type="line"/>
      <point x="28" y="608" type="line"/>
      <point x="148" y="608" type="line"/>
      <point x="148" y="288" type="line"/>
      <point x="241" y="288" type="line"/>
      <point x="241" y="608" type="line"/>
    </contour>
    <contour>
      <point x="868" y="288" type="line"/>
      <point x="868" y="686" type="line"/>
      <point x="719" y="686" type="line"/>
      <point x="628" y="419" type="line"/>
      <point x="539" y="686" type="line"/>
      <point x="390" y="686" type="line"/>
      <point x="390" y="288" type="line"/>
      <point x="475" y="288" type="line"/>
      <point x="474" y="386"/>
      <point x="474" y="486"/>
      <point x="474" y="584" type="curve"/>
      <point x="476" y="581" type="line"/>
      <point x="509" y="483"/>
      <point x="541" y="386"/>
      <point x="573" y="288" type="curve"/>
      <point x="674" y="288" type="line"/>
      <point x="706" y="385"/>
      <point x="741" y="485"/>
      <point x="773" y="583" type="curve"/>
      <point x="775" y="586" type="line"/>
      <point x="775" y="288" type="line"/>
    </contour>
  </outline>
</glyph>
<glyph name="estimated" format="1">
  <advance width="730"/>
  <unicode hex="212E"/>
  <outline>
    <contour>
      <point x="100" y="150" type="line"/>
      <point x="224" y="70" type="line"/>
      <point x="224" y="599" type="line"/>
      <point x="100" y="539" type="line"/>
    </contour>
    <contour>
      <point x="505" y="599" type="line"/>
      <point x="505" y="344" type="line"/>
      <point x="632" y="344" type="line"/>
      <point x="632" y="539" type="line"/>
    </contour>
    <contour>
      <point x="78" y="307" type="line"/>
      <point x="658" y="307" type="line"/>
      <point x="658" y="382" type="line"/>
      <point x="78" y="382" type="line"/>
    </contour>
    <contour>
      <point x="680" y="307" type="line"/>
      <point x="680" y="363" type="line" smooth="yes"/>
      <point x="680" y="571"/>
      <point x="554" y="696"/>
      <point x="365" y="696" type="curve" smooth="yes"/>
      <point x="176" y="696"/>
      <point x="50" y="571"/>
      <point x="50" y="362" type="curve" smooth="yes"/>
      <point x="50" y="324" type="line" smooth="yes"/>
      <point x="50" y="115"/>
      <point x="176" y="-10"/>
      <point x="367" y="-10" type="curve" smooth="yes"/>
      <point x="484" y="-10"/>
      <point x="578" y="35"/>
      <point x="634" y="116" type="curve"/>
      <point x="563" y="164" type="line"/>
      <point x="522" y="98"/>
      <point x="449" y="68"/>
      <point x="367" y="68" type="curve" smooth="yes"/>
      <point x="236" y="68"/>
      <point x="142" y="151"/>
      <point x="142" y="319" type="curve" smooth="yes"/>
      <point x="142" y="367" type="line" smooth="yes"/>
      <point x="142" y="535"/>
      <point x="233" y="619"/>
      <point x="365" y="619" type="curve" smooth="yes"/>
      <point x="498" y="619"/>
      <point x="588" y="535"/>
      <point x="588" y="366" type="curve" smooth="yes"/>
      <point x="588" y="307" type="line"/>
    </contour>
  </outline>
</glyph>
<glyph name="lessequal" format="1">
  <advance width="600"/>
  <unicode hex="2264"/>
  <outline>
    <contour>
      <point x="46" y="261" type="line"/>
      <point x="555" y="126" type="line"/>
      <point x="555" y="240" type="line"/>
      <point x="426" y="267"/>
      <point x="296" y="294"/>
      <point x="167" y="322" type="curve"/>
      <point x="555" y="405" type="line"/>
      <point x="555" y="520" type="line"/>
      <point x="46" y="384" type="line"/>
    </contour>
    <contour>
      <point x="45" y="0" type="line"/>
      <point x="555" y="0" type="line"/>
      <point x="555" y="105" type="line"/>
      <point x="45" y="105" type="line"/>
    </contour>
  </outline>
</glyph>
<glyph name="greaterequal" format="1">
  <advance width="600"/>
  <unicode hex="2265"/>
  <outline>
    <contour>
      <point x="554" y="384" type="line"/>
      <point x="45" y="520" type="line"/>
      <point x="45" y="405" type="line"/>
      <point x="174" y="377"/>
      <point x="303" y="350"/>
      <point x="433" y="322" type="curve"/>
      <point x="303" y="294"/>
      <point x="174" y="267"/>
      <point x="45" y="240" type="curve"/>
      <point x="45" y="126" type="line"/>
      <point x="554" y="261" type="line"/>
    </contour>
    <contour>
      <point x="555" y="105" type="line"/>
      <point x="45" y="105" type="line"/>
      <point x="45" y="0" type="line"/>
      <point x="555" y="0" type="line"/>
    </contour>
  </outline>
</glyph>
